{
  "source": "C:\\Users\\Peter\\Desktop\\stuff\\MIUN\\quantitative_research\\video_compression\\videos\\BVI-HD\\BVI-HD_CDVL_videos\\ORIG\\TreeGrassFamily_1920x1080_30fps.mp4",
  "output": "C:\\Users\\Peter\\Desktop\\stuff\\MIUN\\quantitative_research\\video_compression\\compressed_videos\\BVI-HD\\hevc\\4\\TreeGrassFamily_1920x1080_30fps_hevc.mp4",
  "codec": "hevc",
  "ok": "Input #0, mov,mp4,m4a,3gp,3g2,mj2, from 'C:\\Users\\Peter\\Desktop\\stuff\\MIUN\\quantitative_research\\video_compression\\videos\\BVI-HD\\BVI-HD_CDVL_videos\\ORIG\\TreeGrassFamily_1920x1080_30fps.mp4':\n  Metadata:\n    major_brand     : isom\n    minor_version   : 512\n    compatible_brands: isomiso2avc1mp41\n    encoder         : Lavf54.28.101\n  Duration: 00:00:05.00, start: 0.000000, bitrate: 331787 kb/s\n  Stream #0:0[0x1](und): Video: h264 (High 4:4:4 Predictive) (avc1 / 0x31637661), yuv420p(progressive), 1920x1080, 331784 kb/s, 30 fps, 30 tbr, 30 tbn (default)\n    Metadata:\n      handler_name    : VideoHandler\n      vendor_id       : [0][0][0][0]\n[out#0/mp4 @ 0000026587a1ab00] Codec AVOption b:a (set bitrate (in bits/s)) has not been used for any stream. The most likely reason is either wrong type (e.g. a video option with no video streams) or that it is a private option of some decoder which was not actually used for any stream.\nStream mapping:\n  Stream #0:0 -> #0:0 (h264 (native) -> hevc (libx265))\nPress [q] to stop, [?] for help\n[libx265 @ 000002658863f040] Unknown option: \"aq-mode.\nx265 [info]: HEVC encoder version 4.1+190-8f11c33ac\nx265 [info]: build info [Windows][GCC 15.1.0][64 bit] 10bit\nx265 [info]: using cpu capabilities: MMX2 SSE2Fast LZCNT SSSE3 SSE4.2 AVX FMA3 BMI2 AVX2\nx265 [info]: Main 10 profile, Level-4 (Main tier)\nx265 [info]: Thread pool created using 12 threads\nx265 [info]: Slices                              : 1\nx265 [info]: frame threads / pool features       : 3 / wpp(17 rows)\nx265 [info]: Coding QT: max CU size, min CU size : 64 / 8\nx265 [info]: Residual QT: max TU size, max depth : 32 / 1 inter / 1 intra\nx265 [info]: ME / range / subpel / merge         : star / 57 / 3 / 3\nx265 [info]: Keyframe min / max / scenecut / bias  : 25 / 250 / 40 / 5.00 \nx265 [info]: Lookahead / bframes / badapt        : 25 / 4 / 2\nx265 [info]: b-pyramid / weightp / weightb       : 1 / 1 / 0\nx265 [info]: References / ref-limit  cu / depth  : 4 / on / on\nx265 [info]: AQ: mode / str / qg-size / cu-tree  : 2 / 1.0 / 32 / 1\nx265 [info]: Rate Control / qCompress            : ABR-4000 kbps / 0.60\nx265 [info]: VBV/HRD buffer / max-rate / init    : 4000 / 4000 / 0.750\nx265 [info]: tools: rect limit-modes rd=4 psy-rd=2.00 rdoq=2 psy-rdoq=1.00\nx265 [info]: tools: rskip mode=1 signhide tmvp strong-intra-smoothing lslices=4\nx265 [info]: tools: deblock sao dhdr10-info\nOutput #0, mp4, to 'C:\\Users\\Peter\\Desktop\\stuff\\MIUN\\quantitative_research\\video_compression\\compressed_videos\\BVI-HD\\hevc\\4\\TreeGrassFamily_1920x1080_30fps_hevc.mp4':\n  Metadata:\n    major_brand     : isom\n    minor_version   : 512\n    compatible_brands: isomiso2avc1mp41\n    encoder         : Lavf62.3.100\n  Stream #0:0(und): Video: hevc (hev1 / 0x31766568), yuv420p10le(tv, progressive), 1920x1080, q=2-31, 4000 kb/s, 30 fps, 15360 tbn (default)\n    Metadata:\n      encoder         : Lavc62.11.100 libx265\n      handler_name    : VideoHandler\n      vendor_id       : [0][0][0][0]\n    Side data:\n      cpb: bitrate max/min/avg: 4000000/0/4000000 buffer size: 4000000 vbv_delay: N/A\nframe=    0 fps=0.0 q=0.0 size=       0KiB time=N/A bitrate=N/A speed=N/A elapsed=0:00:01.17    \nframe=    0 fps=0.0 q=0.0 size=       0KiB time=N/A bitrate=N/A speed=N/A elapsed=0:00:01.74    \nframe=    0 fps=0.0 q=0.0 size=       0KiB time=N/A bitrate=N/A speed=N/A elapsed=0:00:02.35    \nframe=    0 fps=0.0 q=0.0 size=       0KiB time=N/A bitrate=N/A speed=N/A elapsed=0:00:02.87    \nframe=    0 fps=0.0 q=0.0 size=       0KiB time=N/A bitrate=N/A speed=N/A elapsed=0:00:03.39    \nframe=    0 fps=0.0 q=0.0 size=       0KiB time=N/A bitrate=N/A speed=N/A elapsed=0:00:03.91    \nframe=    0 fps=0.0 q=0.0 size=       0KiB time=N/A bitrate=N/A speed=N/A elapsed=0:00:04.46    \nframe=    0 fps=0.0 q=0.0 size=       0KiB time=N/A bitrate=N/A speed=N/A elapsed=0:00:05.00    \nframe=    0 fps=0.0 q=0.0 size=       0KiB time=N/A bitrate=N/A speed=N/A elapsed=0:00:05.52    \nframe=    0 fps=0.0 q=0.0 size=       0KiB time=N/A bitrate=N/A speed=N/A elapsed=0:00:06.04    \nframe=    0 fps=0.0 q=0.0 size=       0KiB time=N/A bitrate=N/A speed=N/A elapsed=0:00:06.61    \nframe=    0 fps=0.0 q=0.0 size=       0KiB time=N/A bitrate=N/A speed=N/A elapsed=0:00:07.15    \nframe=    0 fps=0.0 q=0.0 size=       0KiB time=N/A bitrate=N/A speed=N/A elapsed=0:00:07.69    \nframe=    0 fps=0.0 q=0.0 size=       0KiB time=N/A bitrate=N/A speed=N/A elapsed=0:00:08.28    \nframe=    0 fps=0.0 q=0.0 size=       0KiB time=N/A bitrate=N/A speed=N/A elapsed=0:00:08.86    \nframe=    0 fps=0.0 q=0.0 size=       0KiB time=N/A bitrate=N/A speed=N/A elapsed=0:00:09.39    \nframe=    0 fps=0.0 q=0.0 size=       0KiB time=N/A bitrate=N/A speed=N/A elapsed=0:00:09.90    \nframe=    0 fps=0.0 q=0.0 size=       0KiB time=N/A bitrate=N/A speed=N/A elapsed=0:00:10.46    \nframe=    0 fps=0.0 q=0.0 size=       0KiB time=N/A bitrate=N/A speed=N/A elapsed=0:00:10.99    \nframe=    0 fps=0.0 q=0.0 size=       0KiB time=N/A bitrate=N/A speed=N/A elapsed=0:00:11.52    \nframe=    0 fps=0.0 q=0.0 size=       0KiB time=N/A bitrate=N/A speed=N/A elapsed=0:00:12.06    \nframe=    0 fps=0.0 q=0.0 size=       0KiB time=N/A bitrate=N/A speed=N/A elapsed=0:00:12.60    \nframe=    0 fps=0.0 q=0.0 size=       0KiB time=N/A bitrate=N/A speed=N/A elapsed=0:00:13.16    \nframe=    0 fps=0.0 q=0.0 size=       0KiB time=N/A bitrate=N/A speed=N/A elapsed=0:00:13.69    \nframe=    0 fps=0.0 q=0.0 size=       0KiB time=N/A bitrate=N/A speed=N/A elapsed=0:00:14.26    \nframe=    1 fps=0.1 q=35.3 size=       0KiB time=-00:00:00.03 bitrate=N/A speed=N/A elapsed=0:00:14.77    \nframe=    1 fps=0.1 q=35.3 size=       0KiB time=-00:00:00.03 bitrate=N/A speed=N/A elapsed=0:00:15.31    \nframe=    2 fps=0.1 q=40.3 size=       0KiB time=00:00:00.00 bitrate=N/A speed=   0x elapsed=0:00:15.91    \nframe=    2 fps=0.1 q=40.3 size=       0KiB time=00:00:00.00 bitrate=N/A speed=   0x elapsed=0:00:16.48    \nframe=    2 fps=0.1 q=40.3 size=       0KiB time=00:00:00.00 bitrate=N/A speed=   0x elapsed=0:00:17.12    \nframe=    2 fps=0.1 q=40.3 size=       0KiB time=00:00:00.00 bitrate=N/A speed=   0x elapsed=0:00:17.76    \nframe=    2 fps=0.1 q=40.3 size=       0KiB time=00:00:00.00 bitrate=N/A speed=   0x elapsed=0:00:18.34    \nframe=    2 fps=0.1 q=40.3 size=       0KiB time=00:00:00.00 bitrate=N/A speed=   0x elapsed=0:00:18.88    \nframe=    2 fps=0.1 q=40.3 size=       0KiB time=00:00:00.00 bitrate=N/A speed=   0x elapsed=0:00:19.41    \nframe=    3 fps=0.1 q=44.8 size=       0KiB time=00:00:00.03 bitrate=  10.6kbits/s speed=0.00167x elapsed=0:00:20.00    \nframe=    3 fps=0.1 q=44.8 size=       0KiB time=00:00:00.03 bitrate=  10.6kbits/s speed=0.00162x elapsed=0:00:20.53    \nframe=    4 fps=0.2 q=45.9 size=       0KiB time=00:00:00.06 bitrate=   5.3kbits/s speed=0.00317x elapsed=0:00:21.06    \nframe=    4 fps=0.2 q=45.9 size=       0KiB time=00:00:00.06 bitrate=   5.3kbits/s speed=0.00308x elapsed=0:00:21.61    \nframe=    5 fps=0.2 q=46.0 size=       0KiB time=00:00:00.10 bitrate=   3.5kbits/s speed=0.00451x elapsed=0:00:22.17    \nframe=    5 fps=0.2 q=46.0 size=       0KiB time=00:00:00.10 bitrate=   3.5kbits/s speed=0.0044x elapsed=0:00:22.72    \nframe=    5 fps=0.2 q=46.0 size=       0KiB time=00:00:00.10 bitrate=   3.5kbits/s speed=0.00429x elapsed=0:00:23.31    \nframe=    5 fps=0.2 q=46.0 size=       0KiB time=00:00:00.10 bitrate=   3.5kbits/s speed=0.00418x elapsed=0:00:23.89    \nframe=    5 fps=0.2 q=46.0 size=       0KiB time=00:00:00.10 bitrate=   3.5kbits/s speed=0.00409x elapsed=0:00:24.44    \nframe=    5 fps=0.2 q=46.0 size=       0KiB time=00:00:00.10 bitrate=   3.5kbits/s speed=0.004x elapsed=0:00:25.02    \nframe=    5 fps=0.2 q=46.0 size=       0KiB time=00:00:00.10 bitrate=   3.5kbits/s speed=0.00391x elapsed=0:00:25.56    \nframe=    5 fps=0.2 q=46.0 size=       0KiB time=00:00:00.10 bitrate=   3.5kbits/s speed=0.00383x elapsed=0:00:26.08    \nframe=    5 fps=0.2 q=46.0 size=       0KiB time=00:00:00.10 bitrate=   3.5kbits/s speed=0.00376x elapsed=0:00:26.61    \nframe=    5 fps=0.2 q=46.0 size=       0KiB time=00:00:00.10 bitrate=   3.5kbits/s speed=0.00368x elapsed=0:00:27.18    \nframe=    5 fps=0.2 q=46.0 size=       0KiB time=00:00:00.10 bitrate=   3.5kbits/s speed=0.00361x elapsed=0:00:27.71    \nframe=    5 fps=0.2 q=46.0 size=       0KiB time=00:00:00.10 bitrate=   3.5kbits/s speed=0.00354x elapsed=0:00:28.24    \nframe=    6 fps=0.2 q=45.7 size=       0KiB time=00:00:00.13 bitrate=   2.6kbits/s speed=0.00464x elapsed=0:00:28.75    \nframe=    6 fps=0.2 q=45.7 size=       0KiB time=00:00:00.13 bitrate=   2.6kbits/s speed=0.00455x elapsed=0:00:29.31    \nframe=    6 fps=0.2 q=45.7 size=       0KiB time=00:00:00.13 bitrate=   2.6kbits/s speed=0.00447x elapsed=0:00:29.84    \nframe=    6 fps=0.2 q=45.7 size=       0KiB time=00:00:00.13 bitrate=   2.6kbits/s speed=0.00439x elapsed=0:00:30.36    \nframe=    6 fps=0.2 q=45.7 size=       0KiB time=00:00:00.13 bitrate=   2.6kbits/s speed=0.00432x elapsed=0:00:30.88    \nframe=    6 fps=0.2 q=45.7 size=       0KiB time=00:00:00.13 bitrate=   2.6kbits/s speed=0.00425x elapsed=0:00:31.40    \nframe=    6 fps=0.2 q=45.7 size=       0KiB time=00:00:00.13 bitrate=   2.6kbits/s speed=0.00417x elapsed=0:00:31.95    \nframe=    6 fps=0.2 q=45.7 size=       0KiB time=00:00:00.13 bitrate=   2.6kbits/s speed=0.0041x elapsed=0:00:32.50    \nframe=    7 fps=0.2 q=36.5 size=       0KiB time=00:00:00.16 bitrate=   2.1kbits/s speed=0.00504x elapsed=0:00:33.06    \nframe=    8 fps=0.2 q=41.7 size=       0KiB time=00:00:00.20 bitrate=   1.8kbits/s speed=0.00595x elapsed=0:00:33.63    \nframe=    8 fps=0.2 q=41.7 size=       0KiB time=00:00:00.20 bitrate=   1.8kbits/s speed=0.00585x elapsed=0:00:34.16    \nframe=    8 fps=0.2 q=41.7 size=       0KiB time=00:00:00.20 bitrate=   1.8kbits/s speed=0.00577x elapsed=0:00:34.69    \nframe=    8 fps=0.2 q=41.7 size=       0KiB time=00:00:00.20 bitrate=   1.8kbits/s speed=0.00568x elapsed=0:00:35.20    \nframe=    8 fps=0.2 q=41.7 size=       0KiB time=00:00:00.20 bitrate=   1.8kbits/s speed=0.0056x elapsed=0:00:35.73    \nframe=    8 fps=0.2 q=41.7 size=       0KiB time=00:00:00.20 bitrate=   1.8kbits/s speed=0.00552x elapsed=0:00:36.25    \nframe=    8 fps=0.2 q=41.7 size=       0KiB time=00:00:00.20 bitrate=   1.8kbits/s speed=0.00544x elapsed=0:00:36.77    \nframe=    8 fps=0.2 q=41.7 size=       0KiB time=00:00:00.20 bitrate=   1.8kbits/s speed=0.00536x elapsed=0:00:37.28    \nframe=    9 fps=0.2 q=43.2 size=       0KiB time=00:00:00.23 bitrate=   1.5kbits/s speed=0.00617x elapsed=0:00:37.82    \nframe=    9 fps=0.2 q=43.2 size=       0KiB time=00:00:00.23 bitrate=   1.5kbits/s speed=0.00608x elapsed=0:00:38.35    \nframe=    9 fps=0.2 q=43.2 size=       0KiB time=00:00:00.23 bitrate=   1.5kbits/s speed=0.006x elapsed=0:00:38.89    \nframe=    9 fps=0.2 q=43.2 size=       0KiB time=00:00:00.23 bitrate=   1.5kbits/s speed=0.00591x elapsed=0:00:39.44    \nframe=    9 fps=0.2 q=43.2 size=       0KiB time=00:00:00.23 bitrate=   1.5kbits/s speed=0.00584x elapsed=0:00:39.97    \nframe=   10 fps=0.2 q=43.5 size=       0KiB time=00:00:00.23 bitrate=   1.5kbits/s speed=0.00576x elapsed=0:00:40.54    \nframe=   10 fps=0.2 q=43.5 size=       0KiB time=00:00:00.26 bitrate=   1.3kbits/s speed=0.00649x elapsed=0:00:41.09    \nframe=   10 fps=0.2 q=43.5 size=       0KiB time=00:00:00.26 bitrate=   1.3kbits/s speed=0.0064x elapsed=0:00:41.65    \nframe=   10 fps=0.2 q=43.5 size=       0KiB time=00:00:00.26 bitrate=   1.3kbits/s speed=0.00632x elapsed=0:00:42.21    \nframe=   11 fps=0.3 q=36.8 size=       0KiB time=00:00:00.30 bitrate=   1.2kbits/s speed=0.00702x elapsed=0:00:42.74    \nframe=   12 fps=0.3 q=39.9 size=       0KiB time=00:00:00.33 bitrate=   1.1kbits/s speed=0.0077x elapsed=0:00:43.26    \nframe=   12 fps=0.3 q=39.9 size=       0KiB time=00:00:00.33 bitrate=   1.1kbits/s speed=0.00761x elapsed=0:00:43.82    \nframe=   12 fps=0.3 q=39.9 size=       0KiB time=00:00:00.33 bitrate=   1.1kbits/s speed=0.00751x elapsed=0:00:44.35    \nframe=   12 fps=0.3 q=39.9 size=       0KiB time=00:00:00.33 bitrate=   1.1kbits/s speed=0.00742x elapsed=0:00:44.91    \nframe=   12 fps=0.3 q=39.9 size=       0KiB time=00:00:00.33 bitrate=   1.1kbits/s speed=0.00733x elapsed=0:00:45.49    \nframe=   12 fps=0.3 q=39.9 size=       0KiB time=00:00:00.33 bitrate=   1.1kbits/s speed=0.00724x elapsed=0:00:46.02    \nframe=   13 fps=0.3 q=42.5 size=       0KiB time=00:00:00.36 bitrate=   1.0kbits/s speed=0.00787x elapsed=0:00:46.60    \nframe=   13 fps=0.3 q=42.5 size=       0KiB time=00:00:00.36 bitrate=   1.0kbits/s speed=0.00777x elapsed=0:00:47.17    \nframe=   13 fps=0.3 q=42.5 size=       0KiB time=00:00:00.36 bitrate=   1.0kbits/s speed=0.00767x elapsed=0:00:47.77    \nframe=   13 fps=0.3 q=42.5 size=       0KiB time=00:00:00.36 bitrate=   1.0kbits/s speed=0.00759x elapsed=0:00:48.30    \nframe=   13 fps=0.3 q=42.5 size=       0KiB time=00:00:00.36 bitrate=   1.0kbits/s speed=0.00751x elapsed=0:00:48.83    \nframe=   14 fps=0.3 q=42.5 size=       0KiB time=00:00:00.40 bitrate=   0.9kbits/s speed=0.0081x elapsed=0:00:49.36    \nframe=   14 fps=0.3 q=42.5 size=       0KiB time=00:00:00.40 bitrate=   0.9kbits/s speed=0.00802x elapsed=0:00:49.88    \nframe=   15 fps=0.3 q=36.9 size=       0KiB time=00:00:00.43 bitrate=   0.8kbits/s speed=0.0086x elapsed=0:00:50.39    \nframe=   15 fps=0.3 q=36.9 size=       0KiB time=00:00:00.43 bitrate=   0.8kbits/s speed=0.00851x elapsed=0:00:50.95    \nframe=   16 fps=0.3 q=40.2 size=     256KiB time=00:00:00.46 bitrate=4494.6kbits/s speed=0.00906x elapsed=0:00:51.53    \nframe=   16 fps=0.3 q=40.2 size=     256KiB time=00:00:00.46 bitrate=4494.6kbits/s speed=0.00897x elapsed=0:00:52.04    \nframe=   16 fps=0.3 q=40.2 size=     256KiB time=00:00:00.46 bitrate=4494.6kbits/s speed=0.00888x elapsed=0:00:52.56    \nframe=   17 fps=0.3 q=42.9 size=     256KiB time=00:00:00.50 bitrate=4195.0kbits/s speed=0.00941x elapsed=0:00:53.11    \nframe=   17 fps=0.3 q=42.9 size=     256KiB time=00:00:00.50 bitrate=4195.0kbits/s speed=0.00932x elapsed=0:00:53.64    \nframe=   17 fps=0.3 q=42.9 size=     256KiB time=00:00:00.50 bitrate=4195.0kbits/s speed=0.00922x elapsed=0:00:54.21    \nframe=   17 fps=0.3 q=42.9 size=     256KiB time=00:00:00.50 bitrate=4195.0kbits/s speed=0.00913x elapsed=0:00:54.78    \nframe=   18 fps=0.3 q=42.6 size=     256KiB time=00:00:00.53 bitrate=3932.8kbits/s speed=0.00964x elapsed=0:00:55.33    \nframe=   18 fps=0.3 q=42.6 size=     256KiB time=00:00:00.53 bitrate=3932.8kbits/s speed=0.00955x elapsed=0:00:55.84    \nframe=   18 fps=0.3 q=42.6 size=     256KiB time=00:00:00.53 bitrate=3932.8kbits/s speed=0.00946x elapsed=0:00:56.38    \nframe=   18 fps=0.3 q=42.6 size=     256KiB time=00:00:00.53 bitrate=3932.8kbits/s speed=0.00937x elapsed=0:00:56.93    \nframe=   19 fps=0.3 q=36.9 size=     256KiB time=00:00:00.56 bitrate=3701.5kbits/s speed=0.00986x elapsed=0:00:57.45    \nframe=   20 fps=0.3 q=40.2 size=     256KiB time=00:00:00.60 bitrate=3495.8kbits/s speed=0.0103x elapsed=0:00:57.98    \nframe=   20 fps=0.3 q=40.2 size=     256KiB time=00:00:00.60 bitrate=3495.8kbits/s speed=0.0102x elapsed=0:00:58.55    \nframe=   20 fps=0.3 q=40.2 size=     256KiB time=00:00:00.60 bitrate=3495.8kbits/s speed=0.0101x elapsed=0:00:59.11    \nframe=   20 fps=0.3 q=40.2 size=     256KiB time=00:00:00.60 bitrate=3495.8kbits/s speed=0.01x elapsed=0:00:59.77    \nframe=   20 fps=0.3 q=40.2 size=     256KiB time=00:00:00.60 bitrate=3495.8kbits/s speed=0.00992x elapsed=0:01:00.46    \nframe=   20 fps=0.3 q=40.2 size=     256KiB time=00:00:00.60 bitrate=3495.8kbits/s speed=0.00979x elapsed=0:01:01.26    \nframe=   20 fps=0.3 q=40.2 size=     256KiB time=00:00:00.60 bitrate=3495.8kbits/s speed=0.00967x elapsed=0:01:02.03    \nframe=   20 fps=0.3 q=40.2 size=     256KiB time=00:00:00.60 bitrate=3495.8kbits/s speed=0.00957x elapsed=0:01:02.66    \nframe=   20 fps=0.3 q=40.2 size=     256KiB time=00:00:00.60 bitrate=3495.8kbits/s speed=0.00949x elapsed=0:01:03.20    \nframe=   20 fps=0.3 q=40.2 size=     256KiB time=00:00:00.60 bitrate=3495.8kbits/s speed=0.0094x elapsed=0:01:03.81    \nframe=   21 fps=0.3 q=42.6 size=     256KiB time=00:00:00.63 bitrate=3311.9kbits/s speed=0.00983x elapsed=0:01:04.43    \nframe=   21 fps=0.3 q=42.6 size=     256KiB time=00:00:00.63 bitrate=3311.9kbits/s speed=0.00975x elapsed=0:01:04.97    \nframe=   21 fps=0.3 q=42.6 size=     256KiB time=00:00:00.63 bitrate=3311.9kbits/s speed=0.00966x elapsed=0:01:05.58    \nframe=   21 fps=0.3 q=42.6 size=     256KiB time=00:00:00.63 bitrate=3311.9kbits/s speed=0.00958x elapsed=0:01:06.12    \nframe=   21 fps=0.3 q=42.6 size=     256KiB time=00:00:00.63 bitrate=3311.9kbits/s speed=0.0095x elapsed=0:01:06.63    \nframe=   22 fps=0.3 q=42.6 size=     256KiB time=00:00:00.66 bitrate=3146.3kbits/s speed=0.00992x elapsed=0:01:07.18    \nframe=   22 fps=0.3 q=42.6 size=     256KiB time=00:00:00.66 bitrate=3146.3kbits/s speed=0.00983x elapsed=0:01:07.81    \nframe=   22 fps=0.3 q=42.6 size=     256KiB time=00:00:00.66 bitrate=3146.3kbits/s speed=0.00975x elapsed=0:01:08.38    \nframe=   22 fps=0.3 q=42.6 size=     256KiB time=00:00:00.66 bitrate=3146.3kbits/s speed=0.00966x elapsed=0:01:08.99    \nframe=   22 fps=0.3 q=42.6 size=     256KiB time=00:00:00.66 bitrate=3146.3kbits/s speed=0.00957x elapsed=0:01:09.62    \nframe=   22 fps=0.3 q=42.6 size=     256KiB time=00:00:00.66 bitrate=3146.3kbits/s speed=0.0095x elapsed=0:01:10.15    \nframe=   23 fps=0.3 q=36.9 size=     256KiB time=00:00:00.70 bitrate=2996.4kbits/s speed=0.00989x elapsed=0:01:10.74    \nframe=   23 fps=0.3 q=36.9 size=     256KiB time=00:00:00.70 bitrate=2996.4kbits/s speed=0.00979x elapsed=0:01:11.50    \nframe=   23 fps=0.3 q=36.9 size=     256KiB time=00:00:00.70 bitrate=2996.4kbits/s speed=0.00971x elapsed=0:01:12.10    \nframe=   24 fps=0.3 q=40.2 size=     256KiB time=00:00:00.73 bitrate=2860.2kbits/s speed=0.0101x elapsed=0:01:12.64    \nframe=   24 fps=0.3 q=40.2 size=     256KiB time=00:00:00.73 bitrate=2860.2kbits/s speed=0.01x elapsed=0:01:13.30    \nframe=   24 fps=0.3 q=40.2 size=     256KiB time=00:00:00.73 bitrate=2860.2kbits/s speed=0.00991x elapsed=0:01:13.97    \nframe=   24 fps=0.3 q=40.2 size=     256KiB time=00:00:00.73 bitrate=2860.2kbits/s speed=0.00983x elapsed=0:01:14.60    \nframe=   24 fps=0.3 q=40.2 size=     256KiB time=00:00:00.73 bitrate=2860.2kbits/s speed=0.00976x elapsed=0:01:15.10    \nframe=   24 fps=0.3 q=40.2 size=     256KiB time=00:00:00.73 bitrate=2860.2kbits/s speed=0.0097x elapsed=0:01:15.62    \nframe=   24 fps=0.3 q=40.2 size=     256KiB time=00:00:00.73 bitrate=2860.2kbits/s speed=0.00963x elapsed=0:01:16.17    \nframe=   24 fps=0.3 q=40.2 size=     256KiB time=00:00:00.73 bitrate=2860.2kbits/s speed=0.00956x elapsed=0:01:16.71    \nframe=   25 fps=0.3 q=42.7 size=     256KiB time=00:00:00.76 bitrate=2735.9kbits/s speed=0.00992x elapsed=0:01:17.28    \nframe=   25 fps=0.3 q=42.7 size=     256KiB time=00:00:00.76 bitrate=2735.9kbits/s speed=0.00985x elapsed=0:01:17.81    \nframe=   25 fps=0.3 q=42.7 size=     256KiB time=00:00:00.76 bitrate=2735.9kbits/s speed=0.00978x elapsed=0:01:18.37    \nframe=   25 fps=0.3 q=42.7 size=     256KiB time=00:00:00.76 bitrate=2735.9kbits/s speed=0.00971x elapsed=0:01:18.96    \nframe=   25 fps=0.3 q=42.7 size=     256KiB time=00:00:00.76 bitrate=2735.9kbits/s speed=0.00963x elapsed=0:01:19.59    \nframe=   26 fps=0.3 q=42.8 size=     256KiB time=00:00:00.80 bitrate=2621.9kbits/s speed=0.00998x elapsed=0:01:20.14    \nframe=   27 fps=0.3 q=36.9 size=     256KiB time=00:00:00.83 bitrate=2517.0kbits/s speed=0.0103x elapsed=0:01:20.69    \nframe=   27 fps=0.3 q=36.9 size=     256KiB time=00:00:00.83 bitrate=2517.0kbits/s speed=0.0103x elapsed=0:01:21.26    \nframe=   27 fps=0.3 q=36.9 size=     256KiB time=00:00:00.83 bitrate=2517.0kbits/s speed=0.0102x elapsed=0:01:21.83    \nframe=   27 fps=0.3 q=36.9 size=     256KiB time=00:00:00.83 bitrate=2517.0kbits/s speed=0.0101x elapsed=0:01:22.37    \nframe=   27 fps=0.3 q=36.9 size=     256KiB time=00:00:00.83 bitrate=2517.0kbits/s speed=0.01x elapsed=0:01:23.00    \nframe=   28 fps=0.3 q=40.1 size=     256KiB time=00:00:00.86 bitrate=2420.2kbits/s speed=0.0104x elapsed=0:01:23.54    \nframe=   29 fps=0.3 q=42.6 size=     256KiB time=00:00:00.90 bitrate=2330.6kbits/s speed=0.0107x elapsed=0:01:24.17    \nframe=   29 fps=0.3 q=42.6 size=     256KiB time=00:00:00.90 bitrate=2330.6kbits/s speed=0.0106x elapsed=0:01:24.81    \nframe=   29 fps=0.3 q=42.6 size=     256KiB time=00:00:00.90 bitrate=2330.6kbits/s speed=0.0105x elapsed=0:01:25.42    \nframe=   29 fps=0.3 q=42.6 size=     256KiB time=00:00:00.90 bitrate=2330.6kbits/s speed=0.0105x elapsed=0:01:26.00    \nframe=   29 fps=0.3 q=42.6 size=     256KiB time=00:00:00.90 bitrate=2330.6kbits/s speed=0.0104x elapsed=0:01:26.58    \nframe=   29 fps=0.3 q=42.6 size=     256KiB time=00:00:00.90 bitrate=2330.6kbits/s speed=0.0103x elapsed=0:01:27.18    \nframe=   29 fps=0.3 q=42.6 size=     256KiB time=00:00:00.90 bitrate=2330.6kbits/s speed=0.0103x elapsed=0:01:27.71    \nframe=   30 fps=0.3 q=42.9 size=     256KiB time=00:00:00.93 bitrate=2247.3kbits/s speed=0.0106x elapsed=0:01:28.26    \nframe=   30 fps=0.3 q=42.9 size=     256KiB time=00:00:00.93 bitrate=2247.3kbits/s speed=0.0105x elapsed=0:01:28.80    \nframe=   30 fps=0.3 q=42.9 size=     256KiB time=00:00:00.93 bitrate=2247.3kbits/s speed=0.0104x elapsed=0:01:29.35    \nframe=   30 fps=0.3 q=42.9 size=     256KiB time=00:00:00.93 bitrate=2247.3kbits/s speed=0.0104x elapsed=0:01:29.96    \nframe=   30 fps=0.3 q=42.9 size=     256KiB time=00:00:00.93 bitrate=2247.3kbits/s speed=0.0103x elapsed=0:01:30.56    \nframe=   30 fps=0.3 q=42.9 size=     256KiB time=00:00:00.93 bitrate=2247.3kbits/s speed=0.0102x elapsed=0:01:31.15    \nframe=   30 fps=0.3 q=42.9 size=     256KiB time=00:00:00.93 bitrate=2247.3kbits/s speed=0.0102x elapsed=0:01:31.92    \nframe=   30 fps=0.3 q=42.9 size=     256KiB time=00:00:00.93 bitrate=2247.3kbits/s speed=0.0101x elapsed=0:01:32.60    \nframe=   31 fps=0.3 q=37.0 size=     256KiB time=00:00:00.96 bitrate=2169.8kbits/s speed=0.0104x elapsed=0:01:33.29    \nframe=   31 fps=0.3 q=37.0 size=     256KiB time=00:00:00.96 bitrate=2169.8kbits/s speed=0.0103x elapsed=0:01:33.91    \nframe=   32 fps=0.3 q=40.1 size=     512KiB time=00:00:01.00 bitrate=4194.7kbits/s speed=0.0106x elapsed=0:01:34.45    \nframe=   32 fps=0.3 q=40.1 size=     512KiB time=00:00:01.00 bitrate=4194.7kbits/s speed=0.0105x elapsed=0:01:35.12    \nframe=   32 fps=0.3 q=40.1 size=     512KiB time=00:00:01.00 bitrate=4194.7kbits/s speed=0.0104x elapsed=0:01:35.89    \nframe=   32 fps=0.3 q=40.1 size=     512KiB time=00:00:01.00 bitrate=4194.7kbits/s speed=0.0104x elapsed=0:01:36.52    \nframe=   32 fps=0.3 q=40.1 size=     512KiB time=00:00:01.00 bitrate=4194.7kbits/s speed=0.0103x elapsed=0:01:37.24    \nframe=   32 fps=0.3 q=40.1 size=     512KiB time=00:00:01.00 bitrate=4194.7kbits/s speed=0.0102x elapsed=0:01:37.77    \nframe=   32 fps=0.3 q=40.1 size=     512KiB time=00:00:01.00 bitrate=4194.7kbits/s speed=0.0102x elapsed=0:01:38.40    \nframe=   33 fps=0.3 q=42.7 size=     512KiB time=00:00:01.03 bitrate=4059.3kbits/s speed=0.0104x elapsed=0:01:39.00    \nframe=   33 fps=0.3 q=42.7 size=     512KiB time=00:00:01.03 bitrate=4059.3kbits/s speed=0.0104x elapsed=0:01:39.52    \nframe=   33 fps=0.3 q=42.7 size=     512KiB time=00:00:01.03 bitrate=4059.3kbits/s speed=0.0103x elapsed=0:01:40.06    \nframe=   34 fps=0.3 q=42.7 size=     512KiB time=00:00:01.06 bitrate=3932.5kbits/s speed=0.0106x elapsed=0:01:40.72    \nframe=   34 fps=0.3 q=42.7 size=     512KiB time=00:00:01.06 bitrate=3932.5kbits/s speed=0.0105x elapsed=0:01:41.25    \nframe=   34 fps=0.3 q=42.7 size=     512KiB time=00:00:01.06 bitrate=3932.5kbits/s speed=0.0105x elapsed=0:01:41.81    \nframe=   34 fps=0.3 q=42.7 size=     512KiB time=00:00:01.06 bitrate=3932.5kbits/s speed=0.0104x elapsed=0:01:42.34    \nframe=   34 fps=0.3 q=42.7 size=     512KiB time=00:00:01.06 bitrate=3932.5kbits/s speed=0.0104x elapsed=0:01:42.89    \nframe=   34 fps=0.3 q=42.7 size=     512KiB time=00:00:01.06 bitrate=3932.5kbits/s speed=0.0103x elapsed=0:01:43.43    \nframe=   34 fps=0.3 q=42.7 size=     512KiB time=00:00:01.06 bitrate=3932.5kbits/s speed=0.0103x elapsed=0:01:43.98    \nframe=   35 fps=0.3 q=37.0 size=     512KiB time=00:00:01.10 bitrate=3813.3kbits/s speed=0.0105x elapsed=0:01:44.52    \nframe=   35 fps=0.3 q=37.0 size=     512KiB time=00:00:01.10 bitrate=3813.3kbits/s speed=0.0105x elapsed=0:01:45.06    \nframe=   35 fps=0.3 q=37.0 size=     512KiB time=00:00:01.10 bitrate=3813.3kbits/s speed=0.0104x elapsed=0:01:45.59    \nframe=   36 fps=0.3 q=40.3 size=     512KiB time=00:00:01.13 bitrate=3701.2kbits/s speed=0.0107x elapsed=0:01:46.13    \nframe=   36 fps=0.3 q=40.3 size=     512KiB time=00:00:01.13 bitrate=3701.2kbits/s speed=0.0106x elapsed=0:01:46.65    \nframe=   36 fps=0.3 q=40.3 size=     512KiB time=00:00:01.13 bitrate=3701.2kbits/s speed=0.0106x elapsed=0:01:47.18    \nframe=   37 fps=0.3 q=42.7 size=     512KiB time=00:00:01.16 bitrate=3595.4kbits/s speed=0.0108x elapsed=0:01:47.71    \nframe=   37 fps=0.3 q=42.7 size=     512KiB time=00:00:01.16 bitrate=3595.4kbits/s speed=0.0108x elapsed=0:01:48.26    \nframe=   37 fps=0.3 q=42.7 size=     512KiB time=00:00:01.16 bitrate=3595.4kbits/s speed=0.0107x elapsed=0:01:48.81    \nframe=   38 fps=0.3 q=42.7 size=     512KiB time=00:00:01.20 bitrate=3495.5kbits/s speed=0.011x elapsed=0:01:49.40    \nframe=   38 fps=0.3 q=42.7 size=     512KiB time=00:00:01.20 bitrate=3495.5kbits/s speed=0.0109x elapsed=0:01:49.93    \nframe=   39 fps=0.4 q=36.9 size=     512KiB time=00:00:01.23 bitrate=3401.1kbits/s speed=0.0112x elapsed=0:01:50.52    \nframe=   39 fps=0.4 q=36.9 size=     512KiB time=00:00:01.23 bitrate=3401.1kbits/s speed=0.0111x elapsed=0:01:51.03    \nframe=   39 fps=0.3 q=36.9 size=     512KiB time=00:00:01.23 bitrate=3401.1kbits/s speed=0.0111x elapsed=0:01:51.55    \nframe=   39 fps=0.3 q=36.9 size=     512KiB time=00:00:01.23 bitrate=3401.1kbits/s speed=0.011x elapsed=0:01:52.10    \nframe=   39 fps=0.3 q=36.9 size=     512KiB time=00:00:01.23 bitrate=3401.1kbits/s speed=0.011x elapsed=0:01:52.63    \nframe=   39 fps=0.3 q=36.9 size=     512KiB time=00:00:01.23 bitrate=3401.1kbits/s speed=0.0109x elapsed=0:01:53.17    \nframe=   39 fps=0.3 q=36.9 size=     512KiB time=00:00:01.23 bitrate=3401.1kbits/s speed=0.0108x elapsed=0:01:53.71    \nframe=   40 fps=0.4 q=40.2 size=     512KiB time=00:00:01.26 bitrate=3311.6kbits/s speed=0.0111x elapsed=0:01:54.28    \nframe=   40 fps=0.3 q=40.2 size=     512KiB time=00:00:01.26 bitrate=3311.6kbits/s speed=0.011x elapsed=0:01:54.82    \nframe=   40 fps=0.3 q=40.2 size=     512KiB time=00:00:01.26 bitrate=3311.6kbits/s speed=0.011x elapsed=0:01:55.34    \nframe=   40 fps=0.3 q=40.2 size=     512KiB time=00:00:01.26 bitrate=3311.6kbits/s speed=0.0109x elapsed=0:01:55.87    \nframe=   41 fps=0.4 q=42.8 size=     512KiB time=00:00:01.30 bitrate=3226.7kbits/s speed=0.0112x elapsed=0:01:56.47    \nframe=   41 fps=0.4 q=42.8 size=     512KiB time=00:00:01.30 bitrate=3226.7kbits/s speed=0.0111x elapsed=0:01:57.11    \nframe=   41 fps=0.3 q=42.8 size=     512KiB time=00:00:01.30 bitrate=3226.7kbits/s speed=0.011x elapsed=0:01:57.68    \nframe=   41 fps=0.3 q=42.8 size=     512KiB time=00:00:01.30 bitrate=3226.7kbits/s speed=0.011x elapsed=0:01:58.30    \nframe=   41 fps=0.3 q=42.8 size=     512KiB time=00:00:01.30 bitrate=3226.7kbits/s speed=0.0109x elapsed=0:01:59.06    \nframe=   41 fps=0.3 q=42.8 size=     512KiB time=00:00:01.30 bitrate=3226.7kbits/s speed=0.0109x elapsed=0:01:59.77    \nframe=   41 fps=0.3 q=42.8 size=     512KiB time=00:00:01.30 bitrate=3226.7kbits/s speed=0.0108x elapsed=0:02:00.54    \nframe=   41 fps=0.3 q=42.8 size=     512KiB time=00:00:01.30 bitrate=3226.7kbits/s speed=0.0107x elapsed=0:02:01.37    \nframe=   41 fps=0.3 q=42.8 size=     512KiB time=00:00:01.30 bitrate=3226.7kbits/s speed=0.0107x elapsed=0:02:01.97    \nframe=   41 fps=0.3 q=42.8 size=     512KiB time=00:00:01.30 bitrate=3226.7kbits/s speed=0.0106x elapsed=0:02:02.54    \nframe=   41 fps=0.3 q=42.8 size=     512KiB time=00:00:01.30 bitrate=3226.7kbits/s speed=0.0106x elapsed=0:02:03.06    \nframe=   41 fps=0.3 q=42.8 size=     512KiB time=00:00:01.30 bitrate=3226.7kbits/s speed=0.0105x elapsed=0:02:03.63    \nframe=   41 fps=0.3 q=42.8 size=     512KiB time=00:00:01.30 bitrate=3226.7kbits/s speed=0.0105x elapsed=0:02:04.35    \nframe=   41 fps=0.3 q=42.8 size=     512KiB time=00:00:01.30 bitrate=3226.7kbits/s speed=0.0104x elapsed=0:02:04.88    \nframe=   42 fps=0.3 q=42.8 size=     512KiB time=00:00:01.33 bitrate=3146.0kbits/s speed=0.0106x elapsed=0:02:05.38    \nframe=   42 fps=0.3 q=42.8 size=     512KiB time=00:00:01.33 bitrate=3146.0kbits/s speed=0.0106x elapsed=0:02:05.92    \nframe=   43 fps=0.3 q=37.0 size=     512KiB time=00:00:01.36 bitrate=3069.3kbits/s speed=0.0108x elapsed=0:02:06.44    \nframe=   43 fps=0.3 q=37.0 size=     512KiB time=00:00:01.36 bitrate=3069.3kbits/s speed=0.0108x elapsed=0:02:06.96    \nframe=   43 fps=0.3 q=37.0 size=     512KiB time=00:00:01.36 bitrate=3069.3kbits/s speed=0.0107x elapsed=0:02:07.49    \nframe=   44 fps=0.3 q=40.3 size=     512KiB time=00:00:01.40 bitrate=2996.2kbits/s speed=0.0109x elapsed=0:02:08.04    \nframe=   44 fps=0.3 q=40.3 size=     512KiB time=00:00:01.40 bitrate=2996.2kbits/s speed=0.0109x elapsed=0:02:08.61    \nframe=   44 fps=0.3 q=40.3 size=     512KiB time=00:00:01.40 bitrate=2996.2kbits/s speed=0.0108x elapsed=0:02:09.13    \nframe=   44 fps=0.3 q=40.3 size=     512KiB time=00:00:01.40 bitrate=2996.2kbits/s speed=0.0108x elapsed=0:02:09.68    \nframe=   44 fps=0.3 q=40.3 size=     512KiB time=00:00:01.40 bitrate=2996.2kbits/s speed=0.0108x elapsed=0:02:10.20    \nframe=   44 fps=0.3 q=40.3 size=     512KiB time=00:00:01.40 bitrate=2996.2kbits/s speed=0.0107x elapsed=0:02:10.71    \nframe=   44 fps=0.3 q=40.3 size=     512KiB time=00:00:01.40 bitrate=2996.2kbits/s speed=0.0107x elapsed=0:02:11.23    \nframe=   44 fps=0.3 q=40.3 size=     512KiB time=00:00:01.40 bitrate=2996.2kbits/s speed=0.0106x elapsed=0:02:11.75    \nframe=   44 fps=0.3 q=40.3 size=     512KiB time=00:00:01.40 bitrate=2996.2kbits/s speed=0.0106x elapsed=0:02:12.27    \nframe=   45 fps=0.3 q=42.8 size=     512KiB time=00:00:01.43 bitrate=2926.5kbits/s speed=0.0108x elapsed=0:02:12.81    \nframe=   45 fps=0.3 q=42.8 size=     512KiB time=00:00:01.43 bitrate=2926.5kbits/s speed=0.0108x elapsed=0:02:13.32    \nframe=   45 fps=0.3 q=42.8 size=     512KiB time=00:00:01.43 bitrate=2926.5kbits/s speed=0.0107x elapsed=0:02:13.94    \nframe=   45 fps=0.3 q=42.8 size=     512KiB time=00:00:01.43 bitrate=2926.5kbits/s speed=0.0107x elapsed=0:02:14.46    \nframe=   45 fps=0.3 q=42.8 size=     512KiB time=00:00:01.43 bitrate=2926.5kbits/s speed=0.0106x elapsed=0:02:14.98    \nframe=   45 fps=0.3 q=42.8 size=     512KiB time=00:00:01.43 bitrate=2926.5kbits/s speed=0.0106x elapsed=0:02:15.55    \nframe=   45 fps=0.3 q=42.8 size=     512KiB time=00:00:01.43 bitrate=2926.5kbits/s speed=0.0105x elapsed=0:02:16.07    \nframe=   45 fps=0.3 q=42.8 size=     512KiB time=00:00:01.43 bitrate=2926.5kbits/s speed=0.0105x elapsed=0:02:16.64    \nframe=   45 fps=0.3 q=42.8 size=     512KiB time=00:00:01.43 bitrate=2926.5kbits/s speed=0.0104x elapsed=0:02:17.21    \nframe=   45 fps=0.3 q=42.8 size=     512KiB time=00:00:01.43 bitrate=2926.5kbits/s speed=0.0104x elapsed=0:02:17.71    \nframe=   45 fps=0.3 q=42.8 size=     512KiB time=00:00:01.43 bitrate=2926.5kbits/s speed=0.0104x elapsed=0:02:18.26    \nframe=   45 fps=0.3 q=42.8 size=     512KiB time=00:00:01.43 bitrate=2926.5kbits/s speed=0.0103x elapsed=0:02:18.85    \nframe=   45 fps=0.3 q=42.8 size=     512KiB time=00:00:01.43 bitrate=2926.5kbits/s speed=0.0103x elapsed=0:02:19.37    \nframe=   45 fps=0.3 q=42.8 size=     512KiB time=00:00:01.43 bitrate=2926.5kbits/s speed=0.0102x elapsed=0:02:19.91    \nframe=   45 fps=0.3 q=42.8 size=     512KiB time=00:00:01.43 bitrate=2926.5kbits/s speed=0.0102x elapsed=0:02:20.43    \nframe=   45 fps=0.3 q=42.8 size=     512KiB time=00:00:01.43 bitrate=2926.5kbits/s speed=0.0102x elapsed=0:02:20.97    \nframe=   45 fps=0.3 q=42.8 size=     512KiB time=00:00:01.43 bitrate=2926.5kbits/s speed=0.0101x elapsed=0:02:21.49    \nframe=   45 fps=0.3 q=42.8 size=     512KiB time=00:00:01.43 bitrate=2926.5kbits/s speed=0.0101x elapsed=0:02:22.06    \nframe=   45 fps=0.3 q=42.8 size=     512KiB time=00:00:01.43 bitrate=2926.5kbits/s speed=0.0101x elapsed=0:02:22.58    \nframe=   46 fps=0.3 q=42.6 size=     512KiB time=00:00:01.46 bitrate=2860.0kbits/s speed=0.0102x elapsed=0:02:23.14    \nframe=   46 fps=0.3 q=42.6 size=     512KiB time=00:00:01.46 bitrate=2860.0kbits/s speed=0.0102x elapsed=0:02:23.67    \nframe=   46 fps=0.3 q=42.6 size=     512KiB time=00:00:01.46 bitrate=2860.0kbits/s speed=0.0102x elapsed=0:02:24.20    \nframe=   46 fps=0.3 q=42.6 size=     512KiB time=00:00:01.46 bitrate=2860.0kbits/s speed=0.0101x elapsed=0:02:24.72    \nframe=   46 fps=0.3 q=42.6 size=     512KiB time=00:00:01.46 bitrate=2860.0kbits/s speed=0.0101x elapsed=0:02:25.26    \nframe=   46 fps=0.3 q=42.6 size=     512KiB time=00:00:01.46 bitrate=2860.0kbits/s speed=0.0101x elapsed=0:02:25.79    \nframe=   46 fps=0.3 q=42.6 size=     512KiB time=00:00:01.46 bitrate=2860.0kbits/s speed=0.01x elapsed=0:02:26.33    \nframe=   46 fps=0.3 q=42.6 size=     512KiB time=00:00:01.46 bitrate=2860.0kbits/s speed=0.00999x elapsed=0:02:26.84    \nframe=   46 fps=0.3 q=42.6 size=     512KiB time=00:00:01.46 bitrate=2860.0kbits/s speed=0.00995x elapsed=0:02:27.36    \nframe=   46 fps=0.3 q=42.6 size=     512KiB time=00:00:01.46 bitrate=2860.0kbits/s speed=0.00992x elapsed=0:02:27.87    \nframe=   46 fps=0.3 q=42.6 size=     512KiB time=00:00:01.46 bitrate=2860.0kbits/s speed=0.00988x elapsed=0:02:28.39    \nframe=   47 fps=0.3 q=37.0 size=     512KiB time=00:00:01.50 bitrate=2796.4kbits/s speed=0.0101x elapsed=0:02:28.90    \nframe=   47 fps=0.3 q=37.0 size=     512KiB time=00:00:01.50 bitrate=2796.4kbits/s speed=0.01x elapsed=0:02:29.42    \nframe=   47 fps=0.3 q=37.0 size=     512KiB time=00:00:01.50 bitrate=2796.4kbits/s speed=0.01x elapsed=0:02:29.94    \nframe=   48 fps=0.3 q=40.1 size=     768KiB time=00:00:01.53 bitrate=4103.4kbits/s speed=0.0102x elapsed=0:02:30.48    \nframe=   48 fps=0.3 q=40.1 size=     768KiB time=00:00:01.53 bitrate=4103.4kbits/s speed=0.0101x elapsed=0:02:31.13    \nframe=   48 fps=0.3 q=40.1 size=     768KiB time=00:00:01.53 bitrate=4103.4kbits/s speed=0.0101x elapsed=0:02:31.65    \nframe=   48 fps=0.3 q=40.1 size=     768KiB time=00:00:01.53 bitrate=4103.4kbits/s speed=0.0101x elapsed=0:02:32.23    \nframe=   48 fps=0.3 q=40.1 size=     768KiB time=00:00:01.53 bitrate=4103.4kbits/s speed=0.01x elapsed=0:02:32.75    \nframe=   48 fps=0.3 q=40.1 size=     768KiB time=00:00:01.53 bitrate=4103.4kbits/s speed=0.01x elapsed=0:02:33.27    \nframe=   48 fps=0.3 q=40.1 size=     768KiB time=00:00:01.53 bitrate=4103.4kbits/s speed=0.00997x elapsed=0:02:33.82    \nframe=   48 fps=0.3 q=40.1 size=     768KiB time=00:00:01.53 bitrate=4103.4kbits/s speed=0.00993x elapsed=0:02:34.35    \nframe=   48 fps=0.3 q=40.1 size=     768KiB time=00:00:01.53 bitrate=4103.4kbits/s speed=0.0099x elapsed=0:02:34.85    \nframe=   48 fps=0.3 q=40.1 size=     768KiB time=00:00:01.53 bitrate=4103.4kbits/s speed=0.00987x elapsed=0:02:35.41    \nframe=   48 fps=0.3 q=40.1 size=     768KiB time=00:00:01.53 bitrate=4103.4kbits/s speed=0.00983x elapsed=0:02:35.96    \nframe=   48 fps=0.3 q=40.1 size=     768KiB time=00:00:01.53 bitrate=4103.4kbits/s speed=0.0098x elapsed=0:02:36.48    \nframe=   49 fps=0.3 q=42.7 size=     768KiB time=00:00:01.56 bitrate=4016.0kbits/s speed=0.00998x elapsed=0:02:37.00    \nframe=   49 fps=0.3 q=42.7 size=     768KiB time=00:00:01.56 bitrate=4016.0kbits/s speed=0.00994x elapsed=0:02:37.53    \nframe=   49 fps=0.3 q=42.7 size=     768KiB time=00:00:01.56 bitrate=4016.0kbits/s speed=0.00991x elapsed=0:02:38.06    \nframe=   50 fps=0.3 q=42.8 size=     768KiB time=00:00:01.60 bitrate=3932.4kbits/s speed=0.0101x elapsed=0:02:38.59    \nframe=   50 fps=0.3 q=42.8 size=     768KiB time=00:00:01.60 bitrate=3932.4kbits/s speed=0.0101x elapsed=0:02:39.11    \nframe=   51 fps=0.3 q=36.9 size=     768KiB time=00:00:01.63 bitrate=3852.1kbits/s speed=0.0102x elapsed=0:02:39.63    \nframe=   52 fps=0.3 q=40.3 size=     768KiB time=00:00:01.63 bitrate=3852.1kbits/s speed=0.0102x elapsed=0:02:40.17    \nframe=   52 fps=0.3 q=40.3 size=     768KiB time=00:00:01.66 bitrate=3775.1kbits/s speed=0.0104x elapsed=0:02:40.72    \nframe=   52 fps=0.3 q=40.3 size=     768KiB time=00:00:01.66 bitrate=3775.1kbits/s speed=0.0103x elapsed=0:02:41.23    \nframe=   52 fps=0.3 q=40.3 size=     768KiB time=00:00:01.66 bitrate=3775.1kbits/s speed=0.0103x elapsed=0:02:41.75    \nframe=   53 fps=0.3 q=42.8 size=     768KiB time=00:00:01.70 bitrate=3701.1kbits/s speed=0.0105x elapsed=0:02:42.27    \nframe=   53 fps=0.3 q=42.8 size=     768KiB time=00:00:01.70 bitrate=3701.1kbits/s speed=0.0104x elapsed=0:02:42.83    \nframe=   54 fps=0.3 q=42.7 size=     768KiB time=00:00:01.73 bitrate=3629.9kbits/s speed=0.0106x elapsed=0:02:43.35    \nframe=   54 fps=0.3 q=42.7 size=     768KiB time=00:00:01.73 bitrate=3629.9kbits/s speed=0.0106x elapsed=0:02:43.85    \nframe=   54 fps=0.3 q=42.7 size=     768KiB time=00:00:01.73 bitrate=3629.9kbits/s speed=0.0105x elapsed=0:02:44.37    \nframe=   54 fps=0.3 q=42.7 size=     768KiB time=00:00:01.73 bitrate=3629.9kbits/s speed=0.0105x elapsed=0:02:44.90    \nframe=   54 fps=0.3 q=42.7 size=     768KiB time=00:00:01.73 bitrate=3629.9kbits/s speed=0.0105x elapsed=0:02:45.40    \nframe=   54 fps=0.3 q=42.7 size=     768KiB time=00:00:01.73 bitrate=3629.9kbits/s speed=0.0104x elapsed=0:02:45.92    \nframe=   54 fps=0.3 q=42.7 size=     768KiB time=00:00:01.73 bitrate=3629.9kbits/s speed=0.0104x elapsed=0:02:46.45    \nframe=   54 fps=0.3 q=42.7 size=     768KiB time=00:00:01.73 bitrate=3629.9kbits/s speed=0.0104x elapsed=0:02:46.99    \nframe=   54 fps=0.3 q=42.7 size=     768KiB time=00:00:01.73 bitrate=3629.9kbits/s speed=0.0103x elapsed=0:02:47.52    \nframe=   55 fps=0.3 q=36.9 size=     768KiB time=00:00:01.76 bitrate=3561.4kbits/s speed=0.0105x elapsed=0:02:48.07    \nframe=   55 fps=0.3 q=36.9 size=     768KiB time=00:00:01.76 bitrate=3561.4kbits/s speed=0.0105x elapsed=0:02:48.66    \nframe=   55 fps=0.3 q=36.9 size=     768KiB time=00:00:01.76 bitrate=3561.4kbits/s speed=0.0104x elapsed=0:02:49.22    \nframe=   55 fps=0.3 q=36.9 size=     768KiB time=00:00:01.76 bitrate=3561.4kbits/s speed=0.0104x elapsed=0:02:49.77    \nframe=   55 fps=0.3 q=36.9 size=     768KiB time=00:00:01.76 bitrate=3561.4kbits/s speed=0.0104x elapsed=0:02:50.31    \nframe=   55 fps=0.3 q=36.9 size=     768KiB time=00:00:01.76 bitrate=3561.4kbits/s speed=0.0103x elapsed=0:02:50.86    \nframe=   55 fps=0.3 q=36.9 size=     768KiB time=00:00:01.76 bitrate=3561.4kbits/s speed=0.0103x elapsed=0:02:51.45    \nframe=   55 fps=0.3 q=36.9 size=     768KiB time=00:00:01.76 bitrate=3561.4kbits/s speed=0.0103x elapsed=0:02:52.02    \nframe=   55 fps=0.3 q=36.9 size=     768KiB time=00:00:01.76 bitrate=3561.4kbits/s speed=0.0102x elapsed=0:02:52.52    \nframe=   55 fps=0.3 q=36.9 size=     768KiB time=00:00:01.76 bitrate=3561.4kbits/s speed=0.0102x elapsed=0:02:53.05    \nframe=   56 fps=0.3 q=40.0 size=     768KiB time=00:00:01.80 bitrate=3495.4kbits/s speed=0.0104x elapsed=0:02:53.58    \nframe=   57 fps=0.3 q=42.7 size=     768KiB time=00:00:01.83 bitrate=3431.9kbits/s speed=0.0105x elapsed=0:02:54.09    \nframe=   57 fps=0.3 q=42.7 size=     768KiB time=00:00:01.83 bitrate=3431.9kbits/s speed=0.0105x elapsed=0:02:54.64    \nframe=   57 fps=0.3 q=42.7 size=     768KiB time=00:00:01.83 bitrate=3431.9kbits/s speed=0.0105x elapsed=0:02:55.17    \nframe=   57 fps=0.3 q=42.7 size=     768KiB time=00:00:01.83 bitrate=3431.9kbits/s speed=0.0104x elapsed=0:02:55.69    \nframe=   57 fps=0.3 q=42.7 size=     768KiB time=00:00:01.83 bitrate=3431.9kbits/s speed=0.0104x elapsed=0:02:56.21    \nframe=   57 fps=0.3 q=42.7 size=     768KiB time=00:00:01.83 bitrate=3431.9kbits/s speed=0.0104x elapsed=0:02:56.74    \nframe=   57 fps=0.3 q=42.7 size=     768KiB time=00:00:01.83 bitrate=3431.9kbits/s speed=0.0103x elapsed=0:02:57.28    \nframe=   57 fps=0.3 q=42.7 size=     768KiB time=00:00:01.83 bitrate=3431.9kbits/s speed=0.0103x elapsed=0:02:57.80    \nframe=   57 fps=0.3 q=42.7 size=     768KiB time=00:00:01.83 bitrate=3431.9kbits/s speed=0.0103x elapsed=0:02:58.32    \nframe=   58 fps=0.3 q=42.8 size=     768KiB time=00:00:01.86 bitrate=3370.6kbits/s speed=0.0104x elapsed=0:02:58.84    \nframe=   58 fps=0.3 q=42.8 size=     768KiB time=00:00:01.86 bitrate=3370.6kbits/s speed=0.0104x elapsed=0:02:59.38    \nframe=   58 fps=0.3 q=42.8 size=     768KiB time=00:00:01.86 bitrate=3370.6kbits/s speed=0.0104x elapsed=0:02:59.97    \nframe=   58 fps=0.3 q=42.8 size=     768KiB time=00:00:01.86 bitrate=3370.6kbits/s speed=0.0103x elapsed=0:03:00.50    \nframe=   59 fps=0.3 q=37.0 size=     768KiB time=00:00:01.90 bitrate=3311.5kbits/s speed=0.0105x elapsed=0:03:01.06    \nframe=   59 fps=0.3 q=37.0 size=     768KiB time=00:00:01.90 bitrate=3311.5kbits/s speed=0.0105x elapsed=0:03:01.59    \nframe=   60 fps=0.3 q=40.3 size=     768KiB time=00:00:01.93 bitrate=3254.4kbits/s speed=0.0106x elapsed=0:03:02.15    \nframe=   60 fps=0.3 q=40.3 size=     768KiB time=00:00:01.93 bitrate=3254.4kbits/s speed=0.0106x elapsed=0:03:02.67    \nframe=   60 fps=0.3 q=40.3 size=     768KiB time=00:00:01.93 bitrate=3254.4kbits/s speed=0.0106x elapsed=0:03:03.19    \nframe=   61 fps=0.3 q=42.8 size=     768KiB time=00:00:01.96 bitrate=3199.2kbits/s speed=0.0107x elapsed=0:03:03.70    \nframe=   61 fps=0.3 q=42.8 size=     768KiB time=00:00:01.96 bitrate=3199.2kbits/s speed=0.0107x elapsed=0:03:04.23    \nframe=   61 fps=0.3 q=42.8 size=     768KiB time=00:00:01.96 bitrate=3199.2kbits/s speed=0.0106x elapsed=0:03:04.76    \nframe=   61 fps=0.3 q=42.8 size=     768KiB time=00:00:01.96 bitrate=3199.2kbits/s speed=0.0106x elapsed=0:03:05.29    \nframe=   61 fps=0.3 q=42.8 size=     768KiB time=00:00:01.96 bitrate=3199.2kbits/s speed=0.0106x elapsed=0:03:05.82    \nframe=   61 fps=0.3 q=42.8 size=     768KiB time=00:00:01.96 bitrate=3199.2kbits/s speed=0.0105x elapsed=0:03:06.42    \nframe=   62 fps=0.3 q=42.9 size=     768KiB time=00:00:02.00 bitrate=3145.9kbits/s speed=0.0107x elapsed=0:03:06.94    \nframe=   62 fps=0.3 q=42.9 size=     768KiB time=00:00:02.00 bitrate=3145.9kbits/s speed=0.0107x elapsed=0:03:07.45    \nframe=   62 fps=0.3 q=42.9 size=     768KiB time=00:00:02.00 bitrate=3145.9kbits/s speed=0.0106x elapsed=0:03:07.97    \nframe=   62 fps=0.3 q=42.9 size=     768KiB time=00:00:02.00 bitrate=3145.9kbits/s speed=0.0106x elapsed=0:03:08.49    \nframe=   62 fps=0.3 q=42.9 size=     768KiB time=00:00:02.00 bitrate=3145.9kbits/s speed=0.0106x elapsed=0:03:09.07    \nframe=   62 fps=0.3 q=42.9 size=     768KiB time=00:00:02.00 bitrate=3145.9kbits/s speed=0.0105x elapsed=0:03:09.60    \nframe=   63 fps=0.3 q=37.0 size=     768KiB time=00:00:02.03 bitrate=3094.3kbits/s speed=0.0107x elapsed=0:03:10.10    \nframe=   63 fps=0.3 q=37.0 size=     768KiB time=00:00:02.03 bitrate=3094.3kbits/s speed=0.0107x elapsed=0:03:10.64    \nframe=   63 fps=0.3 q=37.0 size=     768KiB time=00:00:02.03 bitrate=3094.3kbits/s speed=0.0106x elapsed=0:03:11.21    \nframe=   63 fps=0.3 q=37.0 size=     768KiB time=00:00:02.03 bitrate=3094.3kbits/s speed=0.0106x elapsed=0:03:11.73    \nframe=   64 fps=0.3 q=40.5 size=    1024KiB time=00:00:02.06 bitrate=4059.2kbits/s speed=0.0107x elapsed=0:03:12.26    \nframe=   64 fps=0.3 q=40.5 size=    1024KiB time=00:00:02.06 bitrate=4059.2kbits/s speed=0.0107x elapsed=0:03:12.76    \nframe=   64 fps=0.3 q=40.5 size=    1024KiB time=00:00:02.06 bitrate=4059.2kbits/s speed=0.0107x elapsed=0:03:13.31    \nframe=   65 fps=0.3 q=42.9 size=    1024KiB time=00:00:02.10 bitrate=3994.7kbits/s speed=0.0108x elapsed=0:03:13.84    \nframe=   65 fps=0.3 q=42.9 size=    1024KiB time=00:00:02.10 bitrate=3994.7kbits/s speed=0.0108x elapsed=0:03:14.36    \nframe=   65 fps=0.3 q=42.9 size=    1024KiB time=00:00:02.10 bitrate=3994.7kbits/s speed=0.0108x elapsed=0:03:14.88    \nframe=   66 fps=0.3 q=42.7 size=    1024KiB time=00:00:02.13 bitrate=3932.3kbits/s speed=0.0109x elapsed=0:03:15.40    \nframe=   66 fps=0.3 q=42.7 size=    1024KiB time=00:00:02.13 bitrate=3932.3kbits/s speed=0.0109x elapsed=0:03:15.92    \nframe=   66 fps=0.3 q=42.7 size=    1024KiB time=00:00:02.13 bitrate=3932.3kbits/s speed=0.0109x elapsed=0:03:16.46    \nframe=   66 fps=0.3 q=42.7 size=    1024KiB time=00:00:02.13 bitrate=3932.3kbits/s speed=0.0108x elapsed=0:03:16.98    \nframe=   66 fps=0.3 q=42.7 size=    1024KiB time=00:00:02.13 bitrate=3932.3kbits/s speed=0.0108x elapsed=0:03:17.52    \nframe=   67 fps=0.3 q=36.9 size=    1024KiB time=00:00:02.16 bitrate=3871.8kbits/s speed=0.0109x elapsed=0:03:18.02    \nframe=   67 fps=0.3 q=36.9 size=    1024KiB time=00:00:02.16 bitrate=3871.8kbits/s speed=0.0109x elapsed=0:03:18.55    \nframe=   67 fps=0.3 q=36.9 size=    1024KiB time=00:00:02.16 bitrate=3871.8kbits/s speed=0.0109x elapsed=0:03:19.07    \nframe=   67 fps=0.3 q=36.9 size=    1024KiB time=00:00:02.16 bitrate=3871.8kbits/s speed=0.0109x elapsed=0:03:19.59    \nframe=   67 fps=0.3 q=36.9 size=    1024KiB time=00:00:02.16 bitrate=3871.8kbits/s speed=0.0108x elapsed=0:03:20.11    \nframe=   67 fps=0.3 q=36.9 size=    1024KiB time=00:00:02.16 bitrate=3871.8kbits/s speed=0.0108x elapsed=0:03:20.68    \nframe=   67 fps=0.3 q=36.9 size=    1024KiB time=00:00:02.16 bitrate=3871.8kbits/s speed=0.0108x elapsed=0:03:21.21    \nframe=   67 fps=0.3 q=36.9 size=    1024KiB time=00:00:02.16 bitrate=3871.8kbits/s speed=0.0107x elapsed=0:03:21.71    \nframe=   67 fps=0.3 q=36.9 size=    1024KiB time=00:00:02.16 bitrate=3871.8kbits/s speed=0.0107x elapsed=0:03:22.23    \nframe=   68 fps=0.3 q=40.3 size=    1024KiB time=00:00:02.20 bitrate=3813.2kbits/s speed=0.0109x elapsed=0:03:22.76    \nframe=   68 fps=0.3 q=40.3 size=    1024KiB time=00:00:02.20 bitrate=3813.2kbits/s speed=0.0108x elapsed=0:03:23.26    \nframe=   68 fps=0.3 q=40.3 size=    1024KiB time=00:00:02.20 bitrate=3813.2kbits/s speed=0.0108x elapsed=0:03:23.78    \nframe=   68 fps=0.3 q=40.3 size=    1024KiB time=00:00:02.20 bitrate=3813.2kbits/s speed=0.0108x elapsed=0:03:24.31    \nframe=   68 fps=0.3 q=40.3 size=    1024KiB time=00:00:02.20 bitrate=3813.2kbits/s speed=0.0107x elapsed=0:03:24.83    \nframe=   68 fps=0.3 q=40.3 size=    1024KiB time=00:00:02.20 bitrate=3813.2kbits/s speed=0.0107x elapsed=0:03:25.34    \nframe=   68 fps=0.3 q=40.3 size=    1024KiB time=00:00:02.20 bitrate=3813.2kbits/s speed=0.0107x elapsed=0:03:25.93    \nframe=   68 fps=0.3 q=40.3 size=    1024KiB time=00:00:02.20 bitrate=3813.2kbits/s speed=0.0107x elapsed=0:03:26.46    \nframe=   68 fps=0.3 q=40.3 size=    1024KiB time=00:00:02.20 bitrate=3813.2kbits/s speed=0.0106x elapsed=0:03:27.02    \nframe=   68 fps=0.3 q=40.3 size=    1024KiB time=00:00:02.20 bitrate=3813.2kbits/s speed=0.0106x elapsed=0:03:27.53    \nframe=   68 fps=0.3 q=40.3 size=    1024KiB time=00:00:02.20 bitrate=3813.2kbits/s speed=0.0106x elapsed=0:03:28.08    \nframe=   68 fps=0.3 q=40.3 size=    1024KiB time=00:00:02.20 bitrate=3813.2kbits/s speed=0.0105x elapsed=0:03:28.67    \nframe=   68 fps=0.3 q=40.3 size=    1024KiB time=00:00:02.20 bitrate=3813.2kbits/s speed=0.0105x elapsed=0:03:29.23    \nframe=   68 fps=0.3 q=40.3 size=    1024KiB time=00:00:02.20 bitrate=3813.2kbits/s speed=0.0105x elapsed=0:03:29.79    \nframe=   68 fps=0.3 q=40.3 size=    1024KiB time=00:00:02.20 bitrate=3813.2kbits/s speed=0.0105x elapsed=0:03:30.31    \nframe=   68 fps=0.3 q=40.3 size=    1024KiB time=00:00:02.20 bitrate=3813.2kbits/s speed=0.0104x elapsed=0:03:30.83    \nframe=   68 fps=0.3 q=40.3 size=    1024KiB time=00:00:02.20 bitrate=3813.2kbits/s speed=0.0104x elapsed=0:03:31.35    \nframe=   68 fps=0.3 q=40.3 size=    1024KiB time=00:00:02.20 bitrate=3813.2kbits/s speed=0.0104x elapsed=0:03:31.89    \nframe=   69 fps=0.3 q=42.7 size=    1024KiB time=00:00:02.23 bitrate=3756.3kbits/s speed=0.0105x elapsed=0:03:32.42    \nframe=   69 fps=0.3 q=42.7 size=    1024KiB time=00:00:02.23 bitrate=3756.3kbits/s speed=0.0105x elapsed=0:03:32.94    \nframe=   70 fps=0.3 q=42.8 size=    1024KiB time=00:00:02.26 bitrate=3701.0kbits/s speed=0.0106x elapsed=0:03:33.46    \nframe=   70 fps=0.3 q=42.8 size=    1024KiB time=00:00:02.26 bitrate=3701.0kbits/s speed=0.0106x elapsed=0:03:33.96    \nframe=   70 fps=0.3 q=42.8 size=    1024KiB time=00:00:02.26 bitrate=3701.0kbits/s speed=0.0106x elapsed=0:03:34.48    \nframe=   71 fps=0.3 q=37.2 size=    1024KiB time=00:00:02.30 bitrate=3647.4kbits/s speed=0.0107x elapsed=0:03:35.01    \nframe=   71 fps=0.3 q=37.2 size=    1024KiB time=00:00:02.30 bitrate=3647.4kbits/s speed=0.0107x elapsed=0:03:35.52    \nframe=   71 fps=0.3 q=37.2 size=    1024KiB time=00:00:02.30 bitrate=3647.4kbits/s speed=0.0106x elapsed=0:03:36.05    \nframe=   71 fps=0.3 q=37.2 size=    1024KiB time=00:00:02.30 bitrate=3647.4kbits/s speed=0.0106x elapsed=0:03:36.56    \nframe=   71 fps=0.3 q=37.2 size=    1024KiB time=00:00:02.30 bitrate=3647.4kbits/s speed=0.0106x elapsed=0:03:37.12    \nframe=   72 fps=0.3 q=40.4 size=    1024KiB time=00:00:02.33 bitrate=3595.3kbits/s speed=0.0107x elapsed=0:03:37.64    \nframe=   72 fps=0.3 q=40.4 size=    1024KiB time=00:00:02.33 bitrate=3595.3kbits/s speed=0.0107x elapsed=0:03:38.19    \nframe=   72 fps=0.3 q=40.4 size=    1024KiB time=00:00:02.33 bitrate=3595.3kbits/s speed=0.0107x elapsed=0:03:38.70    \nframe=   72 fps=0.3 q=40.4 size=    1024KiB time=00:00:02.33 bitrate=3595.3kbits/s speed=0.0106x elapsed=0:03:39.22    \nframe=   73 fps=0.3 q=42.7 size=    1024KiB time=00:00:02.36 bitrate=3544.6kbits/s speed=0.0108x elapsed=0:03:39.77    \nframe=   74 fps=0.3 q=43.1 size=    1024KiB time=00:00:02.40 bitrate=3495.4kbits/s speed=0.0109x elapsed=0:03:40.31    \nframe=   74 fps=0.3 q=43.1 size=    1024KiB time=00:00:02.40 bitrate=3495.4kbits/s speed=0.0109x elapsed=0:03:40.83    \nframe=   74 fps=0.3 q=43.1 size=    1024KiB time=00:00:02.40 bitrate=3495.4kbits/s speed=0.0108x elapsed=0:03:41.35    \nframe=   74 fps=0.3 q=43.1 size=    1024KiB time=00:00:02.40 bitrate=3495.4kbits/s speed=0.0108x elapsed=0:03:41.87    \nframe=   74 fps=0.3 q=43.1 size=    1024KiB time=00:00:02.40 bitrate=3495.4kbits/s speed=0.0108x elapsed=0:03:42.41    \nframe=   75 fps=0.3 q=37.1 size=    1024KiB time=00:00:02.43 bitrate=3447.5kbits/s speed=0.0109x elapsed=0:03:42.93    \nframe=   75 fps=0.3 q=37.1 size=    1024KiB time=00:00:02.43 bitrate=3447.5kbits/s speed=0.0109x elapsed=0:03:43.45    \nframe=   75 fps=0.3 q=37.1 size=    1024KiB time=00:00:02.43 bitrate=3447.5kbits/s speed=0.0109x elapsed=0:03:43.97    \nframe=   75 fps=0.3 q=37.1 size=    1024KiB time=00:00:02.43 bitrate=3447.5kbits/s speed=0.0108x elapsed=0:03:44.52    \nframe=   75 fps=0.3 q=37.1 size=    1024KiB time=00:00:02.43 bitrate=3447.5kbits/s speed=0.0108x elapsed=0:03:45.06    \nframe=   75 fps=0.3 q=37.1 size=    1024KiB time=00:00:02.43 bitrate=3447.5kbits/s speed=0.0108x elapsed=0:03:45.60    \nframe=   76 fps=0.3 q=40.4 size=    1024KiB time=00:00:02.46 bitrate=3400.9kbits/s speed=0.0109x elapsed=0:03:46.12    \nframe=   76 fps=0.3 q=40.4 size=    1024KiB time=00:00:02.46 bitrate=3400.9kbits/s speed=0.0109x elapsed=0:03:46.67    \nframe=   76 fps=0.3 q=40.4 size=    1024KiB time=00:00:02.46 bitrate=3400.9kbits/s speed=0.0109x elapsed=0:03:47.19    \nframe=   77 fps=0.3 q=42.9 size=    1024KiB time=00:00:02.50 bitrate=3355.6kbits/s speed=0.011x elapsed=0:03:47.70    \nframe=   77 fps=0.3 q=42.9 size=    1024KiB time=00:00:02.50 bitrate=3355.6kbits/s speed=0.011x elapsed=0:03:48.26    \nframe=   78 fps=0.3 q=42.7 size=    1024KiB time=00:00:02.53 bitrate=3311.4kbits/s speed=0.0111x elapsed=0:03:48.78    \nframe=   79 fps=0.3 q=37.2 size=    1024KiB time=00:00:02.56 bitrate=3268.4kbits/s speed=0.0112x elapsed=0:03:49.29    \nframe=   79 fps=0.3 q=37.2 size=    1024KiB time=00:00:02.56 bitrate=3268.4kbits/s speed=0.0112x elapsed=0:03:49.81    \nframe=   79 fps=0.3 q=37.2 size=    1024KiB time=00:00:02.56 bitrate=3268.4kbits/s speed=0.0111x elapsed=0:03:50.33    \nframe=   79 fps=0.3 q=37.2 size=    1024KiB time=00:00:02.56 bitrate=3268.4kbits/s speed=0.0111x elapsed=0:03:50.84    \nframe=   80 fps=0.3 q=40.0 size=    1280KiB time=00:00:02.60 bitrate=4033.1kbits/s speed=0.0112x elapsed=0:03:51.37    \nframe=   80 fps=0.3 q=40.0 size=    1280KiB time=00:00:02.60 bitrate=4033.1kbits/s speed=0.0112x elapsed=0:03:51.90    \nframe=   81 fps=0.3 q=42.7 size=    1280KiB time=00:00:02.63 bitrate=3982.1kbits/s speed=0.0113x elapsed=0:03:52.42    \nframe=   82 fps=0.4 q=43.0 size=    1280KiB time=00:00:02.66 bitrate=3932.3kbits/s speed=0.0114x elapsed=0:03:52.94    \nframe=   82 fps=0.4 q=43.0 size=    1280KiB time=00:00:02.66 bitrate=3932.3kbits/s speed=0.0114x elapsed=0:03:53.45    \nframe=   82 fps=0.4 q=43.0 size=    1280KiB time=00:00:02.66 bitrate=3932.3kbits/s speed=0.0114x elapsed=0:03:53.97    \nframe=   82 fps=0.3 q=43.0 size=    1280KiB time=00:00:02.66 bitrate=3932.3kbits/s speed=0.0114x elapsed=0:03:54.48    \nframe=   82 fps=0.3 q=43.0 size=    1280KiB time=00:00:02.66 bitrate=3932.3kbits/s speed=0.0113x elapsed=0:03:55.01    \nframe=   82 fps=0.3 q=43.0 size=    1280KiB time=00:00:02.66 bitrate=3932.3kbits/s speed=0.0113x elapsed=0:03:55.51    \nframe=   82 fps=0.3 q=43.0 size=    1280KiB time=00:00:02.66 bitrate=3932.3kbits/s speed=0.0113x elapsed=0:03:56.03    \nframe=   83 fps=0.4 q=37.1 size=    1280KiB time=00:00:02.70 bitrate=3883.7kbits/s speed=0.0114x elapsed=0:03:56.54    \nframe=   83 fps=0.4 q=37.1 size=    1280KiB time=00:00:02.70 bitrate=3883.7kbits/s speed=0.0114x elapsed=0:03:57.06    \nframe=   83 fps=0.3 q=37.1 size=    1280KiB time=00:00:02.70 bitrate=3883.7kbits/s speed=0.0114x elapsed=0:03:57.60    \nframe=   83 fps=0.3 q=37.1 size=    1280KiB time=00:00:02.70 bitrate=3883.7kbits/s speed=0.0113x elapsed=0:03:58.13    \nframe=   83 fps=0.3 q=37.1 size=    1280KiB time=00:00:02.70 bitrate=3883.7kbits/s speed=0.0113x elapsed=0:03:58.67    \nframe=   84 fps=0.4 q=40.2 size=    1280KiB time=00:00:02.73 bitrate=3836.4kbits/s speed=0.0114x elapsed=0:03:59.19    \nframe=   84 fps=0.4 q=40.2 size=    1280KiB time=00:00:02.73 bitrate=3836.4kbits/s speed=0.0114x elapsed=0:03:59.71    \nframe=   84 fps=0.3 q=40.2 size=    1280KiB time=00:00:02.73 bitrate=3836.4kbits/s speed=0.0114x elapsed=0:04:00.23    \nframe=   85 fps=0.4 q=42.7 size=    1280KiB time=00:00:02.76 bitrate=3790.2kbits/s speed=0.0115x elapsed=0:04:00.75    \nframe=   85 fps=0.4 q=42.7 size=    1280KiB time=00:00:02.76 bitrate=3790.2kbits/s speed=0.0115x elapsed=0:04:01.26    \nframe=   86 fps=0.4 q=42.8 size=    1280KiB time=00:00:02.80 bitrate=3745.0kbits/s speed=0.0116x elapsed=0:04:01.78    \nframe=   86 fps=0.4 q=42.8 size=    1280KiB time=00:00:02.80 bitrate=3745.0kbits/s speed=0.0116x elapsed=0:04:02.32    \nframe=   86 fps=0.4 q=42.8 size=    1280KiB time=00:00:02.80 bitrate=3745.0kbits/s speed=0.0115x elapsed=0:04:02.82    \nframe=   86 fps=0.4 q=42.8 size=    1280KiB time=00:00:02.80 bitrate=3745.0kbits/s speed=0.0115x elapsed=0:04:03.34    \nframe=   87 fps=0.4 q=37.2 size=    1280KiB time=00:00:02.83 bitrate=3701.0kbits/s speed=0.0116x elapsed=0:04:03.90    \nframe=   87 fps=0.4 q=37.2 size=    1280KiB time=00:00:02.83 bitrate=3701.0kbits/s speed=0.0116x elapsed=0:04:04.42    \nframe=   88 fps=0.4 q=40.4 size=    1280KiB time=00:00:02.86 bitrate=3657.9kbits/s speed=0.0117x elapsed=0:04:04.94    \nframe=   88 fps=0.4 q=40.4 size=    1280KiB time=00:00:02.86 bitrate=3657.9kbits/s speed=0.0117x elapsed=0:04:05.48    \nframe=   88 fps=0.4 q=40.4 size=    1280KiB time=00:00:02.86 bitrate=3657.9kbits/s speed=0.0117x elapsed=0:04:06.00    \nframe=   88 fps=0.4 q=40.4 size=    1280KiB time=00:00:02.86 bitrate=3657.9kbits/s speed=0.0116x elapsed=0:04:06.52    \nframe=   88 fps=0.4 q=40.4 size=    1280KiB time=00:00:02.86 bitrate=3657.9kbits/s speed=0.0116x elapsed=0:04:07.04    \nframe=   91 fps=0.4 q=37.2 size=    1280KiB time=00:00:02.96 bitrate=3534.6kbits/s speed=0.012x elapsed=0:04:07.56    \nframe=   91 fps=0.4 q=37.2 size=    1280KiB time=00:00:02.96 bitrate=3534.6kbits/s speed=0.012x elapsed=0:04:08.07    \nframe=   91 fps=0.4 q=37.2 size=    1280KiB time=00:00:02.96 bitrate=3534.6kbits/s speed=0.0119x elapsed=0:04:08.59    \nframe=   91 fps=0.4 q=37.2 size=    1280KiB time=00:00:02.96 bitrate=3534.6kbits/s speed=0.0119x elapsed=0:04:09.11    \nframe=   91 fps=0.4 q=37.2 size=    1280KiB time=00:00:02.96 bitrate=3534.6kbits/s speed=0.0119x elapsed=0:04:09.65    \nframe=   91 fps=0.4 q=37.2 size=    1280KiB time=00:00:02.96 bitrate=3534.6kbits/s speed=0.0119x elapsed=0:04:10.19    \nframe=   91 fps=0.4 q=37.2 size=    1280KiB time=00:00:02.96 bitrate=3534.6kbits/s speed=0.0118x elapsed=0:04:10.70    \nframe=   91 fps=0.4 q=37.2 size=    1280KiB time=00:00:02.96 bitrate=3534.6kbits/s speed=0.0118x elapsed=0:04:11.21    \nframe=   91 fps=0.4 q=37.2 size=    1280KiB time=00:00:02.96 bitrate=3534.6kbits/s speed=0.0118x elapsed=0:04:11.74    \nframe=   92 fps=0.4 q=40.2 size=    1280KiB time=00:00:03.00 bitrate=3495.4kbits/s speed=0.0119x elapsed=0:04:12.25    \nframe=   92 fps=0.4 q=40.2 size=    1280KiB time=00:00:03.00 bitrate=3495.4kbits/s speed=0.0119x elapsed=0:04:12.79    \nframe=   92 fps=0.4 q=40.2 size=    1280KiB time=00:00:03.00 bitrate=3495.4kbits/s speed=0.0118x elapsed=0:04:13.31    \nframe=   92 fps=0.4 q=40.2 size=    1280KiB time=00:00:03.00 bitrate=3495.4kbits/s speed=0.0118x elapsed=0:04:13.83    \nframe=   92 fps=0.4 q=40.2 size=    1280KiB time=00:00:03.00 bitrate=3495.4kbits/s speed=0.0118x elapsed=0:04:14.36    \nframe=   92 fps=0.4 q=40.2 size=    1280KiB time=00:00:03.00 bitrate=3495.4kbits/s speed=0.0118x elapsed=0:04:14.91    \nframe=   93 fps=0.4 q=42.4 size=    1280KiB time=00:00:03.03 bitrate=3457.0kbits/s speed=0.0119x elapsed=0:04:15.44    \nframe=   93 fps=0.4 q=42.4 size=    1280KiB time=00:00:03.03 bitrate=3457.0kbits/s speed=0.0118x elapsed=0:04:15.97    \nframe=   94 fps=0.4 q=42.5 size=    1280KiB time=00:00:03.06 bitrate=3419.4kbits/s speed=0.012x elapsed=0:04:16.49    \nframe=   94 fps=0.4 q=42.5 size=    1280KiB time=00:00:03.06 bitrate=3419.4kbits/s speed=0.0119x elapsed=0:04:16.99    \nframe=   94 fps=0.4 q=42.5 size=    1280KiB time=00:00:03.06 bitrate=3419.4kbits/s speed=0.0119x elapsed=0:04:17.51    \nframe=   94 fps=0.4 q=42.5 size=    1280KiB time=00:00:03.06 bitrate=3419.4kbits/s speed=0.0119x elapsed=0:04:18.03    \nframe=   94 fps=0.4 q=42.5 size=    1280KiB time=00:00:03.06 bitrate=3419.4kbits/s speed=0.0119x elapsed=0:04:18.54    \nframe=   94 fps=0.4 q=42.5 size=    1280KiB time=00:00:03.06 bitrate=3419.4kbits/s speed=0.0118x elapsed=0:04:19.06    \nframe=   94 fps=0.4 q=42.5 size=    1280KiB time=00:00:03.06 bitrate=3419.4kbits/s speed=0.0118x elapsed=0:04:19.58    \nframe=   94 fps=0.4 q=42.5 size=    1280KiB time=00:00:03.06 bitrate=3419.4kbits/s speed=0.0118x elapsed=0:04:20.09    \nframe=   94 fps=0.4 q=42.5 size=    1280KiB time=00:00:03.06 bitrate=3419.4kbits/s speed=0.0118x elapsed=0:04:20.61    \nframe=   94 fps=0.4 q=42.5 size=    1280KiB time=00:00:03.06 bitrate=3419.4kbits/s speed=0.0117x elapsed=0:04:21.13    \nframe=   94 fps=0.4 q=42.5 size=    1280KiB time=00:00:03.06 bitrate=3419.4kbits/s speed=0.0117x elapsed=0:04:21.63    \nframe=   94 fps=0.4 q=42.5 size=    1280KiB time=00:00:03.06 bitrate=3419.4kbits/s speed=0.0117x elapsed=0:04:22.16    \nframe=   94 fps=0.4 q=42.5 size=    1280KiB time=00:00:03.06 bitrate=3419.4kbits/s speed=0.0117x elapsed=0:04:22.68    \nframe=   94 fps=0.4 q=42.5 size=    1280KiB time=00:00:03.06 bitrate=3419.4kbits/s speed=0.0117x elapsed=0:04:23.18    \nframe=   94 fps=0.4 q=42.5 size=    1280KiB time=00:00:03.06 bitrate=3419.4kbits/s speed=0.0116x elapsed=0:04:23.71    \nframe=   94 fps=0.4 q=42.5 size=    1280KiB time=00:00:03.06 bitrate=3419.4kbits/s speed=0.0116x elapsed=0:04:24.21    \nframe=   95 fps=0.4 q=37.2 size=    1280KiB time=00:00:03.10 bitrate=3382.6kbits/s speed=0.0117x elapsed=0:04:24.73    \nframe=   95 fps=0.4 q=37.2 size=    1280KiB time=00:00:03.10 bitrate=3382.6kbits/s speed=0.0117x elapsed=0:04:25.25    \nframe=   95 fps=0.4 q=37.2 size=    1280KiB time=00:00:03.10 bitrate=3382.6kbits/s speed=0.0117x elapsed=0:04:25.77    \nframe=   95 fps=0.4 q=37.2 size=    1280KiB time=00:00:03.10 bitrate=3382.6kbits/s speed=0.0116x elapsed=0:04:26.27    \nframe=   95 fps=0.4 q=37.2 size=    1280KiB time=00:00:03.10 bitrate=3382.6kbits/s speed=0.0116x elapsed=0:04:26.79    \nframe=   95 fps=0.4 q=37.2 size=    1280KiB time=00:00:03.10 bitrate=3382.6kbits/s speed=0.0116x elapsed=0:04:27.31    \nframe=   96 fps=0.4 q=40.1 size=    1536KiB time=00:00:03.13 bitrate=4015.9kbits/s speed=0.0117x elapsed=0:04:27.82    \nframe=   96 fps=0.4 q=40.1 size=    1536KiB time=00:00:03.13 bitrate=4015.9kbits/s speed=0.0117x elapsed=0:04:28.34    \nframe=   96 fps=0.4 q=40.1 size=    1536KiB time=00:00:03.13 bitrate=4015.9kbits/s speed=0.0117x elapsed=0:04:28.86    \nframe=   97 fps=0.4 q=42.5 size=    1536KiB time=00:00:03.16 bitrate=3973.7kbits/s speed=0.0118x elapsed=0:04:29.37    \nframe=   97 fps=0.4 q=42.5 size=    1536KiB time=00:00:03.16 bitrate=3973.7kbits/s speed=0.0117x elapsed=0:04:29.89    \nframe=   98 fps=0.4 q=42.5 size=    1536KiB time=00:00:03.20 bitrate=3932.3kbits/s speed=0.0118x elapsed=0:04:30.41    \nframe=   98 fps=0.4 q=42.5 size=    1536KiB time=00:00:03.20 bitrate=3932.3kbits/s speed=0.0118x elapsed=0:04:30.92    \nframe=   99 fps=0.4 q=37.2 size=    1536KiB time=00:00:03.23 bitrate=3891.7kbits/s speed=0.0119x elapsed=0:04:31.47    \nframe=   99 fps=0.4 q=37.2 size=    1536KiB time=00:00:03.23 bitrate=3891.7kbits/s speed=0.0119x elapsed=0:04:31.99    \nframe=   99 fps=0.4 q=37.2 size=    1536KiB time=00:00:03.23 bitrate=3891.7kbits/s speed=0.0119x elapsed=0:04:32.52    \nframe=   99 fps=0.4 q=37.2 size=    1536KiB time=00:00:03.23 bitrate=3891.7kbits/s speed=0.0118x elapsed=0:04:33.06    \nframe=  100 fps=0.4 q=40.2 size=    1536KiB time=00:00:03.26 bitrate=3852.0kbits/s speed=0.0119x elapsed=0:04:33.58    \nframe=  100 fps=0.4 q=40.2 size=    1536KiB time=00:00:03.26 bitrate=3852.0kbits/s speed=0.0119x elapsed=0:04:34.11    \nframe=  100 fps=0.4 q=40.2 size=    1536KiB time=00:00:03.26 bitrate=3852.0kbits/s speed=0.0119x elapsed=0:04:34.65    \nframe=  100 fps=0.4 q=40.2 size=    1536KiB time=00:00:03.26 bitrate=3852.0kbits/s speed=0.0119x elapsed=0:04:35.21    \nframe=  101 fps=0.4 q=42.6 size=    1536KiB time=00:00:03.30 bitrate=3813.1kbits/s speed=0.012x elapsed=0:04:35.74    \nframe=  102 fps=0.4 q=42.9 size=    1536KiB time=00:00:03.33 bitrate=3775.0kbits/s speed=0.0121x elapsed=0:04:36.25    \nframe=  102 fps=0.4 q=42.9 size=    1536KiB time=00:00:03.33 bitrate=3775.0kbits/s speed=0.012x elapsed=0:04:36.82    \nframe=  102 fps=0.4 q=42.9 size=    1536KiB time=00:00:03.33 bitrate=3775.0kbits/s speed=0.012x elapsed=0:04:37.40    \nframe=  102 fps=0.4 q=42.9 size=    1536KiB time=00:00:03.33 bitrate=3775.0kbits/s speed=0.012x elapsed=0:04:37.90    \nframe=  103 fps=0.4 q=37.2 size=    1536KiB time=00:00:03.36 bitrate=3737.6kbits/s speed=0.0121x elapsed=0:04:38.43    \nframe=  103 fps=0.4 q=37.2 size=    1536KiB time=00:00:03.36 bitrate=3737.6kbits/s speed=0.0121x elapsed=0:04:38.97    \nframe=  103 fps=0.4 q=37.2 size=    1536KiB time=00:00:03.36 bitrate=3737.6kbits/s speed=0.012x elapsed=0:04:39.48    \nframe=  103 fps=0.4 q=37.2 size=    1536KiB time=00:00:03.36 bitrate=3737.6kbits/s speed=0.012x elapsed=0:04:40.00    \nframe=  103 fps=0.4 q=37.2 size=    1536KiB time=00:00:03.36 bitrate=3737.6kbits/s speed=0.012x elapsed=0:04:40.51    \nframe=  104 fps=0.4 q=40.3 size=    1536KiB time=00:00:03.40 bitrate=3701.0kbits/s speed=0.0121x elapsed=0:04:41.03    \nframe=  104 fps=0.4 q=40.3 size=    1536KiB time=00:00:03.40 bitrate=3701.0kbits/s speed=0.0121x elapsed=0:04:41.56    \nframe=  105 fps=0.4 q=42.7 size=    1536KiB time=00:00:03.43 bitrate=3665.0kbits/s speed=0.0122x elapsed=0:04:42.14    \nframe=  105 fps=0.4 q=42.7 size=    1536KiB time=00:00:03.43 bitrate=3665.0kbits/s speed=0.0121x elapsed=0:04:42.65    \nframe=  105 fps=0.4 q=42.7 size=    1536KiB time=00:00:03.43 bitrate=3665.0kbits/s speed=0.0121x elapsed=0:04:43.19    \nframe=  106 fps=0.4 q=42.7 size=    1536KiB time=00:00:03.46 bitrate=3629.8kbits/s speed=0.0122x elapsed=0:04:43.76    \nframe=  106 fps=0.4 q=42.7 size=    1536KiB time=00:00:03.46 bitrate=3629.8kbits/s speed=0.0122x elapsed=0:04:44.29    \nframe=  107 fps=0.4 q=37.2 size=    1536KiB time=00:00:03.50 bitrate=3595.2kbits/s speed=0.0123x elapsed=0:04:44.79    \nframe=  107 fps=0.4 q=37.2 size=    1536KiB time=00:00:03.50 bitrate=3595.2kbits/s speed=0.0123x elapsed=0:04:45.30    \nframe=  107 fps=0.4 q=37.2 size=    1536KiB time=00:00:03.50 bitrate=3595.2kbits/s speed=0.0122x elapsed=0:04:45.83    \nframe=  107 fps=0.4 q=37.2 size=    1536KiB time=00:00:03.50 bitrate=3595.2kbits/s speed=0.0122x elapsed=0:04:46.36    \nframe=  108 fps=0.4 q=40.4 size=    1536KiB time=00:00:03.53 bitrate=3561.3kbits/s speed=0.0123x elapsed=0:04:46.88    \nframe=  109 fps=0.4 q=42.7 size=    1536KiB time=00:00:03.56 bitrate=3528.0kbits/s speed=0.0124x elapsed=0:04:47.42    \nframe=  109 fps=0.4 q=42.7 size=    1536KiB time=00:00:03.56 bitrate=3528.0kbits/s speed=0.0124x elapsed=0:04:47.97    \nframe=  109 fps=0.4 q=42.7 size=    1536KiB time=00:00:03.56 bitrate=3528.0kbits/s speed=0.0124x elapsed=0:04:48.59    \nframe=  109 fps=0.4 q=42.7 size=    1536KiB time=00:00:03.56 bitrate=3528.0kbits/s speed=0.0123x elapsed=0:04:49.16    \nframe=  110 fps=0.4 q=42.9 size=    1792KiB time=00:00:03.60 bitrate=4077.9kbits/s speed=0.0124x elapsed=0:04:49.71    \nframe=  110 fps=0.4 q=42.9 size=    1792KiB time=00:00:03.60 bitrate=4077.9kbits/s speed=0.0124x elapsed=0:04:50.32    \nframe=  110 fps=0.4 q=42.9 size=    1792KiB time=00:00:03.60 bitrate=4077.9kbits/s speed=0.0124x elapsed=0:04:50.97    \nframe=  110 fps=0.4 q=42.9 size=    1792KiB time=00:00:03.60 bitrate=4077.9kbits/s speed=0.0123x elapsed=0:04:51.55    \nframe=  110 fps=0.4 q=42.9 size=    1792KiB time=00:00:03.60 bitrate=4077.9kbits/s speed=0.0123x elapsed=0:04:52.22    \nframe=  111 fps=0.4 q=37.3 size=    1792KiB time=00:00:03.63 bitrate=4040.5kbits/s speed=0.0124x elapsed=0:04:52.77    \nframe=  111 fps=0.4 q=37.3 size=    1792KiB time=00:00:03.63 bitrate=4040.5kbits/s speed=0.0124x elapsed=0:04:53.28    \nframe=  111 fps=0.4 q=37.3 size=    1792KiB time=00:00:03.63 bitrate=4040.5kbits/s speed=0.0124x elapsed=0:04:53.81    \nframe=  111 fps=0.4 q=37.3 size=    1792KiB time=00:00:03.63 bitrate=4040.5kbits/s speed=0.0123x elapsed=0:04:54.35    \nframe=  111 fps=0.4 q=37.3 size=    1792KiB time=00:00:03.63 bitrate=4040.5kbits/s speed=0.0123x elapsed=0:04:54.94    \nframe=  111 fps=0.4 q=37.3 size=    1792KiB time=00:00:03.63 bitrate=4040.5kbits/s speed=0.0123x elapsed=0:04:55.58    \nframe=  112 fps=0.4 q=41.5 size=    1792KiB time=00:00:03.66 bitrate=4003.7kbits/s speed=0.0124x elapsed=0:04:56.10    \nframe=  112 fps=0.4 q=41.5 size=    1792KiB time=00:00:03.66 bitrate=4003.7kbits/s speed=0.0124x elapsed=0:04:56.64    \nframe=  112 fps=0.4 q=41.5 size=    1792KiB time=00:00:03.66 bitrate=4003.7kbits/s speed=0.0123x elapsed=0:04:57.19    \nframe=  112 fps=0.4 q=41.5 size=    1792KiB time=00:00:03.66 bitrate=4003.7kbits/s speed=0.0123x elapsed=0:04:57.89    \nframe=  113 fps=0.4 q=42.7 size=    1792KiB time=00:00:03.70 bitrate=3967.7kbits/s speed=0.0124x elapsed=0:04:58.53    \nframe=  113 fps=0.4 q=42.7 size=    1792KiB time=00:00:03.70 bitrate=3967.7kbits/s speed=0.0124x elapsed=0:04:59.12    \nframe=  114 fps=0.4 q=42.8 size=    1792KiB time=00:00:03.73 bitrate=3932.3kbits/s speed=0.0125x elapsed=0:04:59.68    \nframe=  115 fps=0.4 q=42.8 size=    1792KiB time=00:00:03.76 bitrate=3897.5kbits/s speed=0.0125x elapsed=0:05:00.35    \nframe=  115 fps=0.4 q=42.8 size=    1792KiB time=00:00:03.76 bitrate=3897.5kbits/s speed=0.0125x elapsed=0:05:01.07    \nframe=  116 fps=0.4 q=37.2 size=    1792KiB time=00:00:03.80 bitrate=3863.3kbits/s speed=0.0126x elapsed=0:05:01.62    \nframe=  116 fps=0.4 q=37.2 size=    1792KiB time=00:00:03.80 bitrate=3863.3kbits/s speed=0.0126x elapsed=0:05:02.21    \nframe=  116 fps=0.4 q=37.2 size=    1792KiB time=00:00:03.80 bitrate=3863.3kbits/s speed=0.0125x elapsed=0:05:02.87    \nframe=  116 fps=0.4 q=37.2 size=    1792KiB time=00:00:03.80 bitrate=3863.3kbits/s speed=0.0125x elapsed=0:05:03.53    \nframe=  116 fps=0.4 q=37.2 size=    1792KiB time=00:00:03.80 bitrate=3863.3kbits/s speed=0.0125x elapsed=0:05:04.09    \nframe=  116 fps=0.4 q=37.2 size=    1792KiB time=00:00:03.80 bitrate=3863.3kbits/s speed=0.0125x elapsed=0:05:04.62    \nframe=  116 fps=0.4 q=37.2 size=    1792KiB time=00:00:03.80 bitrate=3863.3kbits/s speed=0.0124x elapsed=0:05:05.29    \nframe=  116 fps=0.4 q=37.2 size=    1792KiB time=00:00:03.80 bitrate=3863.3kbits/s speed=0.0124x elapsed=0:05:05.90    \nframe=  116 fps=0.4 q=37.2 size=    1792KiB time=00:00:03.80 bitrate=3863.3kbits/s speed=0.0124x elapsed=0:05:06.49    \nframe=  116 fps=0.4 q=37.2 size=    1792KiB time=00:00:03.80 bitrate=3863.3kbits/s speed=0.0124x elapsed=0:05:07.13    \nframe=  116 fps=0.4 q=37.2 size=    1792KiB time=00:00:03.80 bitrate=3863.3kbits/s speed=0.0123x elapsed=0:05:07.69    \nframe=  116 fps=0.4 q=37.2 size=    1792KiB time=00:00:03.80 bitrate=3863.3kbits/s speed=0.0123x elapsed=0:05:08.44    \nframe=  117 fps=0.4 q=40.2 size=    1792KiB time=00:00:03.83 bitrate=3829.7kbits/s speed=0.0124x elapsed=0:05:09.04    \nframe=  117 fps=0.4 q=40.2 size=    1792KiB time=00:00:03.83 bitrate=3829.7kbits/s speed=0.0124x elapsed=0:05:09.66    \nframe=  117 fps=0.4 q=40.2 size=    1792KiB time=00:00:03.83 bitrate=3829.7kbits/s speed=0.0123x elapsed=0:05:10.39    \nframe=  117 fps=0.4 q=40.2 size=    1792KiB time=00:00:03.83 bitrate=3829.7kbits/s speed=0.0123x elapsed=0:05:10.94    \nframe=  117 fps=0.4 q=40.2 size=    1792KiB time=00:00:03.83 bitrate=3829.7kbits/s speed=0.0123x elapsed=0:05:11.52    \nframe=  117 fps=0.4 q=40.2 size=    1792KiB time=00:00:03.83 bitrate=3829.7kbits/s speed=0.0123x elapsed=0:05:12.13    \nframe=  117 fps=0.4 q=40.2 size=    1792KiB time=00:00:03.83 bitrate=3829.7kbits/s speed=0.0123x elapsed=0:05:12.86    \nframe=  117 fps=0.4 q=40.2 size=    1792KiB time=00:00:03.83 bitrate=3829.7kbits/s speed=0.0122x elapsed=0:05:13.40    \nframe=  117 fps=0.4 q=40.2 size=    1792KiB time=00:00:03.83 bitrate=3829.7kbits/s speed=0.0122x elapsed=0:05:13.92    \nframe=  117 fps=0.4 q=40.2 size=    1792KiB time=00:00:03.83 bitrate=3829.7kbits/s speed=0.0122x elapsed=0:05:14.65    \nframe=  117 fps=0.4 q=40.2 size=    1792KiB time=00:00:03.83 bitrate=3829.7kbits/s speed=0.0122x elapsed=0:05:15.28    \nframe=  119 fps=0.4 q=42.5 size=    1792KiB time=00:00:03.90 bitrate=3764.2kbits/s speed=0.0123x elapsed=0:05:15.87    \nframe=  119 fps=0.4 q=42.5 size=    1792KiB time=00:00:03.90 bitrate=3764.2kbits/s speed=0.0123x elapsed=0:05:16.40    \nframe=  119 fps=0.4 q=42.5 size=    1792KiB time=00:00:03.90 bitrate=3764.2kbits/s speed=0.0123x elapsed=0:05:17.08    \nframe=  119 fps=0.4 q=42.5 size=    1792KiB time=00:00:03.90 bitrate=3764.2kbits/s speed=0.0123x elapsed=0:05:17.68    \nframe=  119 fps=0.4 q=42.5 size=    1792KiB time=00:00:03.90 bitrate=3764.2kbits/s speed=0.0123x elapsed=0:05:18.20    \nframe=  119 fps=0.4 q=42.5 size=    1792KiB time=00:00:03.90 bitrate=3764.2kbits/s speed=0.0122x elapsed=0:05:18.86    \nframe=  119 fps=0.4 q=42.5 size=    1792KiB time=00:00:03.90 bitrate=3764.2kbits/s speed=0.0122x elapsed=0:05:19.47    \nframe=  120 fps=0.4 q=37.3 size=    1792KiB time=00:00:03.93 bitrate=3732.3kbits/s speed=0.0123x elapsed=0:05:20.03    \nframe=  120 fps=0.4 q=37.3 size=    1792KiB time=00:00:03.93 bitrate=3732.3kbits/s speed=0.0123x elapsed=0:05:20.62    \nframe=  120 fps=0.4 q=37.3 size=    1792KiB time=00:00:03.93 bitrate=3732.3kbits/s speed=0.0122x elapsed=0:05:21.18    \nframe=  121 fps=0.4 q=40.3 size=    1792KiB time=00:00:03.93 bitrate=3732.3kbits/s speed=0.0122x elapsed=0:05:21.77    \nframe=  121 fps=0.4 q=40.3 size=    1792KiB time=00:00:03.96 bitrate=3700.9kbits/s speed=0.0123x elapsed=0:05:22.44    \nframe=  121 fps=0.4 q=40.3 size=    1792KiB time=00:00:03.96 bitrate=3700.9kbits/s speed=0.0123x elapsed=0:05:23.10    \nframe=  122 fps=0.4 q=42.4 size=    1792KiB time=00:00:04.00 bitrate=3670.1kbits/s speed=0.0124x elapsed=0:05:23.76    \nframe=  122 fps=0.4 q=42.4 size=    1792KiB time=00:00:04.00 bitrate=3670.1kbits/s speed=0.0123x elapsed=0:05:24.39    \nframe=  122 fps=0.4 q=42.4 size=    1792KiB time=00:00:04.00 bitrate=3670.1kbits/s speed=0.0123x elapsed=0:05:24.99    \nframe=  122 fps=0.4 q=42.4 size=    1792KiB time=00:00:04.00 bitrate=3670.1kbits/s speed=0.0123x elapsed=0:05:25.55    \nframe=  123 fps=0.4 q=42.8 size=    1792KiB time=00:00:04.03 bitrate=3639.8kbits/s speed=0.0124x elapsed=0:05:26.12    \nframe=  123 fps=0.4 q=42.8 size=    1792KiB time=00:00:04.03 bitrate=3639.8kbits/s speed=0.0123x elapsed=0:05:26.73    \nframe=  124 fps=0.4 q=37.3 size=    1792KiB time=00:00:04.06 bitrate=3609.9kbits/s speed=0.0124x elapsed=0:05:27.35    \nframe=  124 fps=0.4 q=37.3 size=    1792KiB time=00:00:04.06 bitrate=3609.9kbits/s speed=0.0124x elapsed=0:05:27.90    \nframe=  124 fps=0.4 q=37.3 size=    1792KiB time=00:00:04.06 bitrate=3609.9kbits/s speed=0.0124x elapsed=0:05:28.48    \nframe=  124 fps=0.4 q=37.3 size=    1792KiB time=00:00:04.06 bitrate=3609.9kbits/s speed=0.0124x elapsed=0:05:29.07    \nframe=  124 fps=0.4 q=37.3 size=    1792KiB time=00:00:04.06 bitrate=3609.9kbits/s speed=0.0123x elapsed=0:05:29.62    \nframe=  124 fps=0.4 q=37.3 size=    1792KiB time=00:00:04.06 bitrate=3609.9kbits/s speed=0.0123x elapsed=0:05:30.26    \nframe=  124 fps=0.4 q=37.3 size=    1792KiB time=00:00:04.06 bitrate=3609.9kbits/s speed=0.0123x elapsed=0:05:30.91    \nframe=  124 fps=0.4 q=37.3 size=    1792KiB time=00:00:04.06 bitrate=3609.9kbits/s speed=0.0123x elapsed=0:05:31.50    \nframe=  124 fps=0.4 q=37.3 size=    1792KiB time=00:00:04.06 bitrate=3609.9kbits/s speed=0.0122x elapsed=0:05:32.15    \nframe=  125 fps=0.4 q=40.2 size=    1792KiB time=00:00:04.10 bitrate=3580.6kbits/s speed=0.0123x elapsed=0:05:32.93    \nframe=  125 fps=0.4 q=40.2 size=    1792KiB time=00:00:04.10 bitrate=3580.6kbits/s speed=0.0123x elapsed=0:05:33.66    \nframe=  125 fps=0.4 q=40.2 size=    1792KiB time=00:00:04.10 bitrate=3580.6kbits/s speed=0.0123x elapsed=0:05:34.27    \nframe=  125 fps=0.4 q=40.2 size=    1792KiB time=00:00:04.10 bitrate=3580.6kbits/s speed=0.0122x elapsed=0:05:34.93    \nframe=  125 fps=0.4 q=40.2 size=    1792KiB time=00:00:04.10 bitrate=3580.6kbits/s speed=0.0122x elapsed=0:05:35.60    \nframe=  125 fps=0.4 q=40.2 size=    1792KiB time=00:00:04.10 bitrate=3580.6kbits/s speed=0.0122x elapsed=0:05:36.24    \nframe=  125 fps=0.4 q=40.2 size=    1792KiB time=00:00:04.10 bitrate=3580.6kbits/s speed=0.0122x elapsed=0:05:36.98    \nframe=  125 fps=0.4 q=40.2 size=    1792KiB time=00:00:04.10 bitrate=3580.6kbits/s speed=0.0121x elapsed=0:05:37.75    \nframe=  125 fps=0.4 q=40.2 size=    1792KiB time=00:00:04.10 bitrate=3580.6kbits/s speed=0.0121x elapsed=0:05:38.46    \nframe=  125 fps=0.4 q=40.2 size=    1792KiB time=00:00:04.10 bitrate=3580.6kbits/s speed=0.0121x elapsed=0:05:39.12    \nframe=  125 fps=0.4 q=40.2 size=    1792KiB time=00:00:04.10 bitrate=3580.6kbits/s speed=0.0121x elapsed=0:05:39.71    \nframe=  125 fps=0.4 q=40.2 size=    1792KiB time=00:00:04.10 bitrate=3580.6kbits/s speed=0.012x elapsed=0:05:40.30    \nframe=  125 fps=0.4 q=40.2 size=    1792KiB time=00:00:04.10 bitrate=3580.6kbits/s speed=0.012x elapsed=0:05:40.87    \nframe=  125 fps=0.4 q=40.2 size=    1792KiB time=00:00:04.10 bitrate=3580.6kbits/s speed=0.012x elapsed=0:05:41.45    \nframe=  125 fps=0.4 q=40.2 size=    1792KiB time=00:00:04.10 bitrate=3580.6kbits/s speed=0.012x elapsed=0:05:42.02    \nframe=  125 fps=0.4 q=40.2 size=    1792KiB time=00:00:04.10 bitrate=3580.6kbits/s speed=0.012x elapsed=0:05:42.56    \nframe=  125 fps=0.4 q=40.2 size=    1792KiB time=00:00:04.10 bitrate=3580.6kbits/s speed=0.0119x elapsed=0:05:43.18    \nframe=  125 fps=0.4 q=40.2 size=    1792KiB time=00:00:04.10 bitrate=3580.6kbits/s speed=0.0119x elapsed=0:05:43.76    \nframe=  125 fps=0.4 q=40.2 size=    1792KiB time=00:00:04.10 bitrate=3580.6kbits/s speed=0.0119x elapsed=0:05:44.46    \nframe=  125 fps=0.4 q=40.2 size=    1792KiB time=00:00:04.10 bitrate=3580.6kbits/s speed=0.0119x elapsed=0:05:45.00    \nframe=  126 fps=0.4 q=42.6 size=    2048KiB time=00:00:04.13 bitrate=4059.1kbits/s speed=0.012x elapsed=0:05:45.59    \nframe=  126 fps=0.4 q=42.6 size=    2048KiB time=00:00:04.13 bitrate=4059.1kbits/s speed=0.0119x elapsed=0:05:46.12    \nframe=  126 fps=0.4 q=42.6 size=    2048KiB time=00:00:04.13 bitrate=4059.1kbits/s speed=0.0119x elapsed=0:05:46.72    \nframe=  127 fps=0.4 q=42.7 size=    2048KiB time=00:00:04.16 bitrate=4026.6kbits/s speed=0.012x elapsed=0:05:47.28    \nframe=  128 fps=0.4 q=37.3 size=    2048KiB time=00:00:04.20 bitrate=3994.7kbits/s speed=0.0121x elapsed=0:05:47.85    \nframe=  128 fps=0.4 q=37.3 size=    2048KiB time=00:00:04.20 bitrate=3994.7kbits/s speed=0.0121x elapsed=0:05:48.37    \nframe=  128 fps=0.4 q=37.3 size=    2048KiB time=00:00:04.20 bitrate=3994.7kbits/s speed=0.012x elapsed=0:05:48.97    \nframe=  128 fps=0.4 q=37.3 size=    2048KiB time=00:00:04.20 bitrate=3994.7kbits/s speed=0.012x elapsed=0:05:49.54    \nframe=  128 fps=0.4 q=37.3 size=    2048KiB time=00:00:04.20 bitrate=3994.7kbits/s speed=0.012x elapsed=0:05:50.08    \nframe=  128 fps=0.4 q=37.3 size=    2048KiB time=00:00:04.20 bitrate=3994.7kbits/s speed=0.012x elapsed=0:05:50.76    \nframe=  128 fps=0.4 q=37.3 size=    2048KiB time=00:00:04.20 bitrate=3994.7kbits/s speed=0.012x elapsed=0:05:51.36    \nframe=  128 fps=0.4 q=37.3 size=    2048KiB time=00:00:04.20 bitrate=3994.7kbits/s speed=0.0119x elapsed=0:05:52.12    \nframe=  128 fps=0.4 q=37.3 size=    2048KiB time=00:00:04.20 bitrate=3994.7kbits/s speed=0.0119x elapsed=0:05:52.86    \nframe=  129 fps=0.4 q=40.2 size=    2048KiB time=00:00:04.23 bitrate=3963.2kbits/s speed=0.012x elapsed=0:05:53.44    \nframe=  129 fps=0.4 q=40.2 size=    2048KiB time=00:00:04.23 bitrate=3963.2kbits/s speed=0.012x elapsed=0:05:53.95    \nframe=  129 fps=0.4 q=40.2 size=    2048KiB time=00:00:04.23 bitrate=3963.2kbits/s speed=0.0119x elapsed=0:05:54.47    \nframe=  129 fps=0.4 q=40.2 size=    2048KiB time=00:00:04.23 bitrate=3963.2kbits/s speed=0.0119x elapsed=0:05:55.01    \nframe=  130 fps=0.4 q=42.4 size=    2048KiB time=00:00:04.26 bitrate=3932.2kbits/s speed=0.012x elapsed=0:05:55.54    \nframe=  130 fps=0.4 q=42.4 size=    2048KiB time=00:00:04.26 bitrate=3932.2kbits/s speed=0.012x elapsed=0:05:56.07    \nframe=  131 fps=0.4 q=42.4 size=    2048KiB time=00:00:04.30 bitrate=3901.8kbits/s speed=0.0121x elapsed=0:05:56.57    \nframe=  131 fps=0.4 q=42.4 size=    2048KiB time=00:00:04.30 bitrate=3901.8kbits/s speed=0.012x elapsed=0:05:57.11    \nframe=  131 fps=0.4 q=42.4 size=    2048KiB time=00:00:04.30 bitrate=3901.8kbits/s speed=0.012x elapsed=0:05:57.63    \nframe=  131 fps=0.4 q=42.4 size=    2048KiB time=00:00:04.30 bitrate=3901.8kbits/s speed=0.012x elapsed=0:05:58.22    \nframe=  131 fps=0.4 q=42.4 size=    2048KiB time=00:00:04.30 bitrate=3901.8kbits/s speed=0.012x elapsed=0:05:58.75    \nframe=  131 fps=0.4 q=42.4 size=    2048KiB time=00:00:04.30 bitrate=3901.8kbits/s speed=0.012x elapsed=0:05:59.29    \nframe=  131 fps=0.4 q=42.4 size=    2048KiB time=00:00:04.30 bitrate=3901.8kbits/s speed=0.012x elapsed=0:05:59.81    \nframe=  132 fps=0.4 q=37.3 size=    2048KiB time=00:00:04.33 bitrate=3871.7kbits/s speed=0.012x elapsed=0:06:00.35    \nframe=  132 fps=0.4 q=37.3 size=    2048KiB time=00:00:04.33 bitrate=3871.7kbits/s speed=0.012x elapsed=0:06:00.87    \nframe=  132 fps=0.4 q=37.3 size=    2048KiB time=00:00:04.33 bitrate=3871.7kbits/s speed=0.012x elapsed=0:06:01.40    \nframe=  132 fps=0.4 q=37.3 size=    2048KiB time=00:00:04.33 bitrate=3871.7kbits/s speed=0.012x elapsed=0:06:01.93    \nframe=  132 fps=0.4 q=37.3 size=    2048KiB time=00:00:04.33 bitrate=3871.7kbits/s speed=0.012x elapsed=0:06:02.45    \nframe=  132 fps=0.4 q=37.3 size=    2048KiB time=00:00:04.33 bitrate=3871.7kbits/s speed=0.0119x elapsed=0:06:02.98    \nframe=  132 fps=0.4 q=37.3 size=    2048KiB time=00:00:04.33 bitrate=3871.7kbits/s speed=0.0119x elapsed=0:06:03.50    \nframe=  132 fps=0.4 q=37.3 size=    2048KiB time=00:00:04.33 bitrate=3871.7kbits/s speed=0.0119x elapsed=0:06:04.04    \nframe=  132 fps=0.4 q=37.3 size=    2048KiB time=00:00:04.33 bitrate=3871.7kbits/s speed=0.0119x elapsed=0:06:04.57    \nframe=  132 fps=0.4 q=37.3 size=    2048KiB time=00:00:04.33 bitrate=3871.7kbits/s speed=0.0119x elapsed=0:06:05.17    \nframe=  133 fps=0.4 q=40.2 size=    2048KiB time=00:00:04.36 bitrate=3842.2kbits/s speed=0.0119x elapsed=0:06:05.68    \nframe=  133 fps=0.4 q=40.2 size=    2048KiB time=00:00:04.36 bitrate=3842.2kbits/s speed=0.0119x elapsed=0:06:06.20    \nframe=  133 fps=0.4 q=40.2 size=    2048KiB time=00:00:04.36 bitrate=3842.2kbits/s speed=0.0119x elapsed=0:06:06.74    \nframe=  133 fps=0.4 q=40.2 size=    2048KiB time=00:00:04.36 bitrate=3842.2kbits/s speed=0.0119x elapsed=0:06:07.26    \nframe=  134 fps=0.4 q=42.7 size=    2048KiB time=00:00:04.40 bitrate=3813.1kbits/s speed=0.012x elapsed=0:06:07.78    \nframe=  134 fps=0.4 q=42.7 size=    2048KiB time=00:00:04.40 bitrate=3813.1kbits/s speed=0.0119x elapsed=0:06:08.29    \nframe=  134 fps=0.4 q=42.7 size=    2048KiB time=00:00:04.40 bitrate=3813.1kbits/s speed=0.0119x elapsed=0:06:08.81    \nframe=  134 fps=0.4 q=42.7 size=    2048KiB time=00:00:04.40 bitrate=3813.1kbits/s speed=0.0119x elapsed=0:06:09.37    \nframe=  134 fps=0.4 q=42.7 size=    2048KiB time=00:00:04.40 bitrate=3813.1kbits/s speed=0.0119x elapsed=0:06:09.95    \nframe=  134 fps=0.4 q=42.7 size=    2048KiB time=00:00:04.40 bitrate=3813.1kbits/s speed=0.0119x elapsed=0:06:10.49    \nframe=  134 fps=0.4 q=42.7 size=    2048KiB time=00:00:04.40 bitrate=3813.1kbits/s speed=0.0119x elapsed=0:06:11.03    \nframe=  134 fps=0.4 q=42.7 size=    2048KiB time=00:00:04.40 bitrate=3813.1kbits/s speed=0.0118x elapsed=0:06:11.55    \nframe=  134 fps=0.4 q=42.7 size=    2048KiB time=00:00:04.40 bitrate=3813.1kbits/s speed=0.0118x elapsed=0:06:12.12    \nframe=  135 fps=0.4 q=42.6 size=    2048KiB time=00:00:04.43 bitrate=3784.4kbits/s speed=0.0119x elapsed=0:06:12.69    \nframe=  135 fps=0.4 q=42.6 size=    2048KiB time=00:00:04.43 bitrate=3784.4kbits/s speed=0.0119x elapsed=0:06:13.20    \nframe=  135 fps=0.4 q=42.6 size=    2048KiB time=00:00:04.43 bitrate=3784.4kbits/s speed=0.0119x elapsed=0:06:13.72    \nframe=  135 fps=0.4 q=42.6 size=    2048KiB time=00:00:04.43 bitrate=3784.4kbits/s speed=0.0118x elapsed=0:06:14.25    \nframe=  135 fps=0.4 q=42.6 size=    2048KiB time=00:00:04.43 bitrate=3784.4kbits/s speed=0.0118x elapsed=0:06:14.77    \nframe=  135 fps=0.4 q=42.6 size=    2048KiB time=00:00:04.43 bitrate=3784.4kbits/s speed=0.0118x elapsed=0:06:15.32    \nframe=  135 fps=0.4 q=42.6 size=    2048KiB time=00:00:04.43 bitrate=3784.4kbits/s speed=0.0118x elapsed=0:06:15.84    \nframe=  135 fps=0.4 q=42.6 size=    2048KiB time=00:00:04.43 bitrate=3784.4kbits/s speed=0.0118x elapsed=0:06:16.36    \nframe=  135 fps=0.4 q=42.6 size=    2048KiB time=00:00:04.43 bitrate=3784.4kbits/s speed=0.0118x elapsed=0:06:16.90    \nframe=  136 fps=0.4 q=37.4 size=    2048KiB time=00:00:04.46 bitrate=3756.2kbits/s speed=0.0118x elapsed=0:06:17.42    \nframe=  136 fps=0.4 q=37.4 size=    2048KiB time=00:00:04.46 bitrate=3756.2kbits/s speed=0.0118x elapsed=0:06:17.98    \nframe=  136 fps=0.4 q=37.4 size=    2048KiB time=00:00:04.46 bitrate=3756.2kbits/s speed=0.0118x elapsed=0:06:18.49    \nframe=  136 fps=0.4 q=37.4 size=    2048KiB time=00:00:04.46 bitrate=3756.2kbits/s speed=0.0118x elapsed=0:06:19.02    \nframe=  136 fps=0.4 q=37.4 size=    2048KiB time=00:00:04.46 bitrate=3756.2kbits/s speed=0.0118x elapsed=0:06:19.55    \nframe=  136 fps=0.4 q=37.4 size=    2048KiB time=00:00:04.46 bitrate=3756.2kbits/s speed=0.0118x elapsed=0:06:20.09    \nframe=  136 fps=0.4 q=37.4 size=    2048KiB time=00:00:04.46 bitrate=3756.2kbits/s speed=0.0117x elapsed=0:06:20.65    \nframe=  136 fps=0.4 q=37.4 size=    2048KiB time=00:00:04.46 bitrate=3756.2kbits/s speed=0.0117x elapsed=0:06:21.17    \nframe=  136 fps=0.4 q=37.4 size=    2048KiB time=00:00:04.46 bitrate=3756.2kbits/s speed=0.0117x elapsed=0:06:21.70    \nframe=  136 fps=0.4 q=37.4 size=    2048KiB time=00:00:04.46 bitrate=3756.2kbits/s speed=0.0117x elapsed=0:06:22.24    \nframe=  137 fps=0.4 q=41.4 size=    2048KiB time=00:00:04.50 bitrate=3728.3kbits/s speed=0.0118x elapsed=0:06:22.78    \nframe=  137 fps=0.4 q=41.4 size=    2048KiB time=00:00:04.50 bitrate=3728.3kbits/s speed=0.0117x elapsed=0:06:23.31    \nframe=  137 fps=0.4 q=41.4 size=    2048KiB time=00:00:04.50 bitrate=3728.3kbits/s speed=0.0117x elapsed=0:06:23.83    \nframe=  137 fps=0.4 q=41.4 size=    2048KiB time=00:00:04.50 bitrate=3728.3kbits/s speed=0.0117x elapsed=0:06:24.36    \nframe=  137 fps=0.4 q=41.4 size=    2048KiB time=00:00:04.50 bitrate=3728.3kbits/s speed=0.0117x elapsed=0:06:24.88    \nframe=  137 fps=0.4 q=41.4 size=    2048KiB time=00:00:04.50 bitrate=3728.3kbits/s speed=0.0117x elapsed=0:06:25.38    \nframe=  138 fps=0.4 q=42.6 size=    2048KiB time=00:00:04.53 bitrate=3700.9kbits/s speed=0.0117x elapsed=0:06:25.90    \nframe=  138 fps=0.4 q=42.6 size=    2048KiB time=00:00:04.53 bitrate=3700.9kbits/s speed=0.0117x elapsed=0:06:26.42    \nframe=  138 fps=0.4 q=42.6 size=    2048KiB time=00:00:04.53 bitrate=3700.9kbits/s speed=0.0117x elapsed=0:06:26.94    \nframe=  138 fps=0.4 q=42.6 size=    2048KiB time=00:00:04.53 bitrate=3700.9kbits/s speed=0.0117x elapsed=0:06:27.50    \nframe=  138 fps=0.4 q=42.6 size=    2048KiB time=00:00:04.53 bitrate=3700.9kbits/s speed=0.0117x elapsed=0:06:28.01    \nframe=  138 fps=0.4 q=42.6 size=    2048KiB time=00:00:04.53 bitrate=3700.9kbits/s speed=0.0117x elapsed=0:06:28.53    \nframe=  139 fps=0.4 q=42.9 size=    2048KiB time=00:00:04.56 bitrate=3673.9kbits/s speed=0.0117x elapsed=0:06:29.07    \nframe=  139 fps=0.4 q=42.9 size=    2048KiB time=00:00:04.56 bitrate=3673.9kbits/s speed=0.0117x elapsed=0:06:29.60    \nframe=  140 fps=0.4 q=42.7 size=    2048KiB time=00:00:04.60 bitrate=3647.3kbits/s speed=0.0118x elapsed=0:06:30.14    \nframe=  140 fps=0.4 q=42.7 size=    2048KiB time=00:00:04.60 bitrate=3647.3kbits/s speed=0.0118x elapsed=0:06:30.66    \nframe=  140 fps=0.4 q=42.7 size=    2048KiB time=00:00:04.60 bitrate=3647.3kbits/s speed=0.0118x elapsed=0:06:31.19    \nframe=  140 fps=0.4 q=42.7 size=    2048KiB time=00:00:04.60 bitrate=3647.3kbits/s speed=0.0117x elapsed=0:06:31.73    \nframe=  140 fps=0.4 q=42.7 size=    2048KiB time=00:00:04.60 bitrate=3647.3kbits/s speed=0.0117x elapsed=0:06:32.25    \nframe=  140 fps=0.4 q=42.7 size=    2048KiB time=00:00:04.60 bitrate=3647.3kbits/s speed=0.0117x elapsed=0:06:32.77    \nframe=  141 fps=0.4 q=37.8 size=    2048KiB time=00:00:04.63 bitrate=3621.1kbits/s speed=0.0118x elapsed=0:06:33.28    \nframe=  141 fps=0.4 q=37.8 size=    2048KiB time=00:00:04.63 bitrate=3621.1kbits/s speed=0.0118x elapsed=0:06:33.81    \nframe=  141 fps=0.4 q=37.8 size=    2048KiB time=00:00:04.63 bitrate=3621.1kbits/s speed=0.0117x elapsed=0:06:34.35    \nframe=  141 fps=0.4 q=37.8 size=    2048KiB time=00:00:04.63 bitrate=3621.1kbits/s speed=0.0117x elapsed=0:06:34.88    \nframe=  141 fps=0.4 q=37.8 size=    2048KiB time=00:00:04.63 bitrate=3621.1kbits/s speed=0.0117x elapsed=0:06:35.40    \nframe=  141 fps=0.4 q=37.8 size=    2048KiB time=00:00:04.63 bitrate=3621.1kbits/s speed=0.0117x elapsed=0:06:35.94    \nframe=  141 fps=0.4 q=37.8 size=    2048KiB time=00:00:04.63 bitrate=3621.1kbits/s speed=0.0117x elapsed=0:06:36.46    \nframe=  141 fps=0.4 q=37.8 size=    2048KiB time=00:00:04.63 bitrate=3621.1kbits/s speed=0.0117x elapsed=0:06:36.96    \nframe=  141 fps=0.4 q=37.8 size=    2048KiB time=00:00:04.63 bitrate=3621.1kbits/s speed=0.0117x elapsed=0:06:37.50    \nframe=  141 fps=0.4 q=37.8 size=    2048KiB time=00:00:04.63 bitrate=3621.1kbits/s speed=0.0116x elapsed=0:06:38.05    \nframe=  141 fps=0.4 q=37.8 size=    2048KiB time=00:00:04.63 bitrate=3621.1kbits/s speed=0.0116x elapsed=0:06:38.57    \nframe=  141 fps=0.4 q=37.8 size=    2048KiB time=00:00:04.63 bitrate=3621.1kbits/s speed=0.0116x elapsed=0:06:39.12    \nframe=  141 fps=0.4 q=37.8 size=    2048KiB time=00:00:04.63 bitrate=3621.1kbits/s speed=0.0116x elapsed=0:06:39.69    \nframe=  141 fps=0.4 q=37.8 size=    2048KiB time=00:00:04.63 bitrate=3621.1kbits/s speed=0.0116x elapsed=0:06:40.24    \nframe=  141 fps=0.4 q=37.8 size=    2048KiB time=00:00:04.63 bitrate=3621.1kbits/s speed=0.0116x elapsed=0:06:40.78    \nframe=  141 fps=0.4 q=37.8 size=    2048KiB time=00:00:04.63 bitrate=3621.1kbits/s speed=0.0115x elapsed=0:06:41.30    \nframe=  141 fps=0.4 q=37.8 size=    2048KiB time=00:00:04.63 bitrate=3621.1kbits/s speed=0.0115x elapsed=0:06:41.81    \nframe=  142 fps=0.4 q=41.3 size=    2304KiB time=00:00:04.66 bitrate=4044.6kbits/s speed=0.0116x elapsed=0:06:42.33    \nframe=  142 fps=0.4 q=41.3 size=    2304KiB time=00:00:04.66 bitrate=4044.6kbits/s speed=0.0116x elapsed=0:06:42.87    \nframe=  142 fps=0.4 q=41.3 size=    2304KiB time=00:00:04.66 bitrate=4044.6kbits/s speed=0.0116x elapsed=0:06:43.39    \nframe=  142 fps=0.4 q=41.3 size=    2304KiB time=00:00:04.66 bitrate=4044.6kbits/s speed=0.0116x elapsed=0:06:43.93    \nframe=  142 fps=0.4 q=41.3 size=    2304KiB time=00:00:04.66 bitrate=4044.6kbits/s speed=0.0115x elapsed=0:06:44.45    \nframe=  142 fps=0.4 q=41.3 size=    2304KiB time=00:00:04.66 bitrate=4044.6kbits/s speed=0.0115x elapsed=0:06:44.97    \nframe=  142 fps=0.4 q=41.3 size=    2304KiB time=00:00:04.66 bitrate=4044.6kbits/s speed=0.0115x elapsed=0:06:45.49    \nframe=  143 fps=0.4 q=42.4 size=    2304KiB time=00:00:04.70 bitrate=4015.9kbits/s speed=0.0116x elapsed=0:06:46.02    \nframe=  143 fps=0.4 q=42.4 size=    2304KiB time=00:00:04.70 bitrate=4015.9kbits/s speed=0.0116x elapsed=0:06:46.54    \nframe=  144 fps=0.4 q=42.6 size=    2304KiB time=00:00:04.73 bitrate=3987.6kbits/s speed=0.0116x elapsed=0:06:47.06    \nframe=  144 fps=0.4 q=42.6 size=    2304KiB time=00:00:04.73 bitrate=3987.6kbits/s speed=0.0116x elapsed=0:06:47.60    \nframe=  144 fps=0.4 q=42.6 size=    2304KiB time=00:00:04.73 bitrate=3987.6kbits/s speed=0.0116x elapsed=0:06:48.13    \nframe=  145 fps=0.4 q=42.6 size=    2304KiB time=00:00:04.76 bitrate=3959.7kbits/s speed=0.0117x elapsed=0:06:48.65    \nframe=  145 fps=0.4 q=42.6 size=    2304KiB time=00:00:04.76 bitrate=3959.7kbits/s speed=0.0116x elapsed=0:06:49.17    \nframe=  145 fps=0.4 q=42.6 size=    2304KiB time=00:00:04.76 bitrate=3959.7kbits/s speed=0.0116x elapsed=0:06:49.69    \nframe=  145 fps=0.4 q=42.6 size=    2304KiB time=00:00:04.76 bitrate=3959.7kbits/s speed=0.0116x elapsed=0:06:50.21    \nframe=  145 fps=0.4 q=42.6 size=    2304KiB time=00:00:04.76 bitrate=3959.7kbits/s speed=0.0116x elapsed=0:06:50.74    \nframe=  146 fps=0.4 q=40.0 size=    2304KiB time=00:00:04.80 bitrate=3932.2kbits/s speed=0.0117x elapsed=0:06:51.24    \nframe=  146 fps=0.4 q=40.0 size=    2304KiB time=00:00:04.80 bitrate=3932.2kbits/s speed=0.0117x elapsed=0:06:51.76    \nframe=  146 fps=0.4 q=40.0 size=    2304KiB time=00:00:04.80 bitrate=3932.2kbits/s speed=0.0116x elapsed=0:06:52.28    \nframe=  146 fps=0.4 q=40.0 size=    2304KiB time=00:00:04.80 bitrate=3932.2kbits/s speed=0.0116x elapsed=0:06:52.80    \nframe=  147 fps=0.4 q=39.9 size=    2304KiB time=00:00:04.83 bitrate=3905.1kbits/s speed=0.0117x elapsed=0:06:53.33    \nframe=  147 fps=0.4 q=39.9 size=    2304KiB time=00:00:04.83 bitrate=3905.1kbits/s speed=0.0117x elapsed=0:06:53.85    \nframe=  147 fps=0.4 q=39.9 size=    2304KiB time=00:00:04.83 bitrate=3905.1kbits/s speed=0.0117x elapsed=0:06:54.37    \nframe=  148 fps=0.4 q=42.4 size=    2304KiB time=00:00:04.86 bitrate=3878.4kbits/s speed=0.0117x elapsed=0:06:54.89    \nframe=  148 fps=0.4 q=42.4 size=    2304KiB time=00:00:04.86 bitrate=3878.4kbits/s speed=0.0117x elapsed=0:06:55.40    \n[mp4 @ 0000026587a29740] Starting second pass: moving the moov atom to the beginning of the file\n[out#0/mp4 @ 0000026587a1ab00] video:2430KiB audio:0KiB subtitle:0KiB other streams:0KiB global headers:2KiB muxing overhead: 0.213448%\nframe=  150 fps=0.4 q=42.7 Lsize=    2436KiB time=00:00:04.93 bitrate=4044.3kbits/s speed=0.0119x elapsed=0:06:55.74    \nx265 [info]: frame I:      1, Avg QP:35.26  kb/s: 19713.12\nx265 [info]: frame P:     36, Avg QP:37.26  kb/s: 9590.89 \nx265 [info]: frame B:    113, Avg QP:42.09  kb/s: 2054.42 \nx265 [info]: Weighted P-Frames: Y:0.0% UV:0.0%\n\nencoded 150 frames in 414.69s (0.36 fps), 3980.90 kb/s, Avg QP:40.88\n",
  "seconds": 416.27590250968933,
  "probe_out": {}
}